<svg preserveAspectRatio="xMidYMid meet" width="100%" height="100%" overflow="visible" style="display: block;" viewBox="0 0 16 16" fill="none" xmlns="http://www.w3.org/2000/svg">
<g id="fluent:call-20-filled">
<path id="Vector" d="M5.58961 1.6521C5.93967 1.54655 6.31533 1.56409 6.65404 1.70178C6.99275 1.83948 7.27408 2.08903 7.45121 2.4089L7.51041 2.5281L8.04001 3.7049C8.20042 4.06215 8.25243 4.45863 8.18957 4.84517C8.12671 5.23171 7.95175 5.59128 7.68641 5.8793L7.58001 5.9849L6.74561 6.7633C6.59521 6.9057 6.70801 7.4569 7.25201 8.3993C7.74161 9.2473 8.14001 9.6433 8.33601 9.6649H8.37041L8.41281 9.6569L10.0528 9.1553C10.2732 9.0877 10.5084 9.08503 10.7303 9.14759C10.9522 9.21016 11.1514 9.33532 11.304 9.5081L11.3768 9.6001L12.4624 11.1041C12.6752 11.3989 12.7812 11.7574 12.763 12.1204C12.7448 12.4835 12.6035 12.8296 12.3624 13.1017L12.2648 13.2025L11.8312 13.6137C11.4418 13.9824 10.9548 14.2316 10.4279 14.3316C9.90107 14.4316 9.35659 14.3782 8.85921 14.1777C7.31121 13.5537 5.90481 12.1281 4.62721 9.9153C3.34721 7.6969 2.81521 5.7633 3.05281 4.1073C3.12471 3.60671 3.33084 3.13494 3.64931 2.7421C3.96779 2.34925 4.38672 2.04999 4.86161 1.8761L5.01601 1.8249L5.58961 1.6521Z" fill="var(--fill-0, #F47B20)"/>
</g>
</svg>
