<svg preserveAspectRatio="xMidYMid meet" width="20" height="20" viewBox="0 0 20 20" fill="none" xmlns="http://www.w3.org/2000/svg">
<g id="building-2">
<path id="Vector" d="M8.3332 10H11.6668M8.3332 6.66667H11.6668M11.6668 17.5V15C11.6668 14.558 11.4912 14.134 11.1786 13.8215C10.866 13.5089 10.4421 13.3333 10 13.3333C9.55794 13.3333 9.13398 13.5089 8.82139 13.8215C8.50881 14.134 8.3332 14.558 8.3332 15V17.5M4.9996 8.33333H3.3328C2.89074 8.33333 2.46678 8.50893 2.15419 8.82149C1.84161 9.13405 1.666 9.55797 1.666 10V15.8333C1.666 16.2754 1.84161 16.6993 2.15419 17.0118C2.46678 17.3244 2.89074 17.5 3.3328 17.5H16.6672C17.1093 17.5 17.5332 17.3244 17.8458 17.0118C18.1584 16.6993 18.334 16.2754 18.334 15.8333V7.5C18.334 7.05797 18.1584 6.63405 17.8458 6.32149C17.5332 6.00893 17.1093 5.83333 16.6672 5.83333H15.0004M4.9996 17.5V4.16667C4.9996 3.72464 5.17521 3.30072 5.48779 2.98816C5.80038 2.67559 6.22434 2.5 6.6664 2.5H13.3336C13.7757 2.5 14.1996 2.67559 14.5122 2.98816C14.8248 3.30072 15.0004 3.72464 15.0004 4.16667V17.5" stroke="white" stroke-width="2" stroke-linecap="round"/>
</g>
</svg>
