<svg preserveAspectRatio="none" width="100%" height="100%" overflow="visible" style="display: block;" viewBox="0 0 28.08 28.0801" fill="none" xmlns="http://www.w3.org/2000/svg">
<g id="Group">
<path id="Vector" d="M14.04 0.000108447C6.26663 0.000108447 0 6.26674 0 14.0401C0 21.8135 6.26663 28.0801 14.04 28.0801C21.8134 28.0801 28.08 21.8135 28.08 14.0401C28.08 6.26674 21.8134 0.000108447 14.04 0.000108447ZM20.2724 14.6907L10.9238 20.1698C10.8211 20.2383 10.6499 20.2725 10.5471 20.2725C10.4444 20.2725 10.2732 20.2383 10.1704 20.1698C9.93073 19.9985 9.79376 19.7931 9.79376 19.5191V8.59533H9.75951C9.75951 8.32138 9.93073 8.04742 10.1362 7.94469C10.3417 7.84196 10.6841 7.77347 10.9238 7.94469L20.2724 13.3895C20.5121 13.5607 20.6491 13.7662 20.6491 14.0401C20.6491 14.3141 20.4779 14.588 20.2724 14.6907Z" fill="var(--fill-0, white)"/>
</g>
</svg>
