<svg preserveAspectRatio="none" width="100%" height="100%" overflow="visible" style="display: block;" viewBox="0 0 85 74" fill="none" xmlns="http://www.w3.org/2000/svg">
<path id="quote" opacity="0.12" d="M18.4249 74C23.3382 74 27.5145 72.1026 30.9538 68.3077C34.5568 64.3478 36.3584 60.1405 36.3584 55.6856C36.3584 51.2308 34.8025 47.1884 31.6907 43.5585C28.7428 39.7637 25.7948 37.8662 22.8468 37.8662C23.8295 32.9164 25.5491 28.9565 28.0058 25.9866C30.4624 23.0167 34.3112 19.3043 39.552 14.8495L32.4277 0C23.2563 4.94984 15.5588 12.4571 9.33526 22.5217C3.11175 32.5864 0 42.3211 0 51.7257C0 58.1605 1.80154 63.5229 5.40462 67.8127C9.00771 71.9376 13.3478 74 18.4249 74ZM63.8728 74C68.7861 74 73.0443 72.1026 76.6474 68.3077C80.2505 64.3478 82.052 60.1405 82.052 55.6856C82.052 52.8807 81.2331 50.0758 79.5954 47.2709C78.1214 44.466 76.3198 42.2386 74.1908 40.5886C72.0617 38.7737 70.0963 37.8662 68.2948 37.8662C69.2775 32.9164 70.9971 28.9565 73.4538 25.9866C75.9104 23.0167 79.7591 19.3043 85 14.8495L77.6301 0C68.4586 4.94984 60.7611 12.4571 54.5376 22.5217C48.4778 32.5864 45.448 42.3211 45.448 51.7257C45.448 58.1605 47.2495 63.5229 50.8526 67.8127C54.4557 71.9376 58.7958 74 63.8728 74Z" fill="var(--fill-0, #B2B6BF)"/>
</svg>
