<svg preserveAspectRatio="none" width="100%" height="100%" overflow="visible" style="display: block;" viewBox="0 0 16.0004 15.2704" fill="none" xmlns="http://www.w3.org/2000/svg">
<g id="Group">
<path id="Vector" d="M15.5521 5.43734L10.6578 4.72619L8.46903 0.291219C8.27759 -0.0967187 7.72256 -0.0969063 7.53097 0.291219L5.34222 4.72619L0.448 5.43734C0.0199692 5.49956 -0.151937 6.02731 0.158125 6.3295L3.69959 9.78162L2.86353 14.6561C2.84703 14.7523 2.85777 14.8511 2.89454 14.9416C2.93131 15.032 2.99265 15.1103 3.0716 15.1676C3.15056 15.225 3.244 15.2591 3.34134 15.2662C3.43868 15.2732 3.53605 15.2529 3.62244 15.2074L8 12.9061C12.7658 15.4116 12.4385 15.2676 12.6209 15.2676C12.9433 15.2676 13.1915 14.9769 13.1365 14.6561L12.3004 9.78162L15.8419 6.3295C16.1517 6.02753 15.9804 5.49962 15.5521 5.43734Z" fill="var(--fill-0, #F7AC16)"/>
<path id="Vector_2" d="M8.00003 0C7.90243 5.1845e-06 7.80677 0.027313 7.72388 0.0788366C7.64098 0.13036 7.57415 0.204045 7.53094 0.291562L5.34219 4.72653L0.448 5.43769C0.0199692 5.49991 -0.151937 6.02766 0.158125 6.32984L3.69959 9.78197L2.86353 14.6564C2.84703 14.7526 2.85777 14.8515 2.89454 14.9419C2.93131 15.0323 2.99265 15.1106 3.0716 15.168C3.15056 15.2253 3.244 15.2595 3.34134 15.2665C3.43868 15.2735 3.53605 15.2532 3.62244 15.2078L8 12.9064H8.00003V0Z" fill="var(--fill-0, #F2D422)"/>
<path id="Vector_3" d="M0.448 5.43797C0.0199692 5.50019 -0.151937 6.02794 0.158125 6.33012L3.69959 9.78225L2.86353 14.6567C2.84703 14.7529 2.85777 14.8518 2.89454 14.9422C2.93131 15.0326 2.99265 15.1109 3.0716 15.1683C3.15056 15.2256 3.244 15.2598 3.34134 15.2668C3.43868 15.2738 3.53605 15.2535 3.62244 15.2081L8 12.9067C12.7658 15.4122 12.4385 15.2682 12.6209 15.2682C12.7314 15.2682 12.839 15.2332 12.9284 15.1683L5.34219 4.72678L0.448 5.43797Z" fill="var(--fill-0, #F7AC16)"/>
<path id="Vector_4" d="M5.57994 9.17941C1.78638 5.48156 1.94944 5.67975 1.89853 5.48797C1.87781 5.41094 1.87356 5.32131 1.89609 5.22678L0.448 5.43719C0.0199692 5.4994 -0.151937 6.02715 0.158125 6.32934L3.69959 9.78147L2.86353 14.6559C2.84703 14.7521 2.85777 14.851 2.89454 14.9414C2.93131 15.0318 2.99265 15.1101 3.0716 15.1675C3.15056 15.2249 3.244 15.259 3.34134 15.266C3.43868 15.2731 3.53605 15.2527 3.62244 15.2073L4.90953 14.5307C4.84391 14.4716 4.7943 14.3969 4.76534 14.3136C4.73637 14.2302 4.72899 14.1408 4.74388 14.0538L5.57994 9.17941Z" fill="var(--fill-0, #F48B19)"/>
<path id="Vector_5" d="M0.157934 6.33024L3.6994 9.78237L2.86334 14.6568C2.84684 14.753 2.85758 14.8519 2.89435 14.9423C2.93112 15.0327 2.99245 15.111 3.07141 15.1684C3.15037 15.2257 3.2438 15.2599 3.34115 15.2669C3.43849 15.2739 3.53586 15.2536 3.62225 15.2082L7.99981 12.9068C12.7656 15.4123 12.4383 15.2683 12.6207 15.2683C12.9431 15.2683 13.1913 14.9777 13.1363 14.6568L12.3002 9.78237L0.0255278 5.79405C-0.0356285 6.01327 0.0255903 6.2013 0.157934 6.33024Z" fill="var(--fill-0, #F2D422)"/>
<path id="Vector_6" d="M0.157934 6.33024L3.6994 9.78237L2.86334 14.6568C2.84684 14.753 2.85758 14.8519 2.89435 14.9423C2.93112 15.0327 2.99245 15.111 3.07141 15.1684C3.15037 15.2257 3.2438 15.2599 3.34115 15.2669C3.43849 15.2739 3.53586 15.2536 3.62225 15.2082L4.90934 14.5315C4.84372 14.4725 4.79411 14.3978 4.76514 14.3144C4.73618 14.2311 4.72879 14.1417 4.74368 14.0547L5.57975 9.18027L3.14606 6.80799L0.0255278 5.79405C-0.0356285 6.01327 0.0255903 6.2013 0.157934 6.33024Z" fill="var(--fill-0, #EFB616)"/>
<path id="Vector_7" d="M2.863 14.6568C2.8465 14.753 2.85724 14.8519 2.89401 14.9423C2.93078 15.0327 2.99211 15.111 3.07107 15.1684C3.15003 15.2257 3.24346 15.2599 3.34081 15.2669C3.43815 15.2739 3.53552 15.2536 3.62191 15.2082L7.99947 12.9068C12.7653 15.4123 12.4379 15.2683 12.6204 15.2683C12.9427 15.2683 13.191 14.9777 13.1359 14.6568L12.2999 9.78235L15.8414 6.33022C15.9113 6.26209 15.9607 6.17577 15.9841 6.08103C16.0075 5.98628 16.0039 5.88689 15.9737 5.79407L3.69906 9.78235L2.863 14.6568Z" fill="var(--fill-0, #F7AC16)"/>
<path id="Vector_8" d="M2.863 14.6562C2.8465 14.7524 2.85724 14.8512 2.89401 14.9417C2.93078 15.0321 2.99211 15.1104 3.07107 15.1677C3.15003 15.2251 3.24346 15.2592 3.34081 15.2663C3.43815 15.2733 3.53552 15.253 3.62191 15.2075L4.909 14.5309C4.84338 14.4719 4.79377 14.3972 4.7648 14.3138C4.73584 14.2304 4.72845 14.1411 4.74334 14.0541L5.57941 9.17963L5.57256 9.17297L3.69906 9.78172L2.863 14.6562Z" fill="var(--fill-0, #F48B19)"/>
<path id="Vector_9" d="M3.62289 15.208L8.00042 12.9067C12.7662 15.4122 12.4389 15.2682 12.6213 15.2682C12.9437 15.2682 13.1919 14.9775 13.1369 14.6567L12.3009 9.78222L15.8424 6.33009C16.152 6.02812 15.9808 5.50022 15.5525 5.43794L10.6582 4.72678L3.07205 15.1682C3.15101 15.2256 3.24445 15.2597 3.34179 15.2668C3.43914 15.2738 3.53651 15.2534 3.62289 15.208Z" fill="var(--fill-0, #F2D422)"/>
<path id="Vector_10" d="M15.9747 5.79405L8.00042 8.38505L3.07205 15.1684C3.15101 15.2258 3.24444 15.2599 3.34178 15.2669C3.43912 15.2739 3.53648 15.2536 3.62286 15.2082L8.00042 12.9068C12.7662 15.4123 12.4389 15.2683 12.6213 15.2683C12.9437 15.2683 13.1919 14.9777 13.1369 14.6568L12.3009 9.78237L15.8424 6.33024C15.9122 6.26211 15.9617 6.17579 15.9851 6.08104C16.0084 5.98629 16.0049 5.88688 15.9747 5.79405Z" fill="var(--fill-0, #F7AC16)"/>
<path id="Vector_11" d="M12.3009 9.78295L8.00042 8.38563L3.07205 15.169C3.15101 15.2263 3.24444 15.2605 3.34178 15.2675C3.43912 15.2745 3.53648 15.2542 3.62286 15.2088L8.00042 12.9074C12.7662 15.4129 12.4389 15.2689 12.6213 15.2689C12.9437 15.2689 13.1919 14.9783 13.1369 14.6574L12.3009 9.78295Z" fill="var(--fill-0, #F2D422)"/>
<path id="Vector_12" d="M3.07205 15.169C3.15101 15.2263 3.24444 15.2605 3.34178 15.2675C3.43912 15.2745 3.53648 15.2542 3.62286 15.2088L8.00042 12.9074C12.7662 15.4129 12.4389 15.2689 12.6213 15.2689C12.7318 15.2689 12.8394 15.2339 12.9288 15.169L8.00042 8.38563L3.07205 15.169Z" fill="var(--fill-0, #F7AC16)"/>
<path id="Vector_13" d="M8.00046 8.3857L8.00042 8.38563L3.07205 15.169C3.15101 15.2263 3.24444 15.2605 3.34178 15.2675C3.43912 15.2745 3.53648 15.2542 3.62286 15.2088L8.00042 12.9074H8.00046V8.3857Z" fill="var(--fill-0, #F2D422)"/>
<path id="Vector_14" d="M5.01102 12.4989L3.07205 15.1677C3.15101 15.225 3.24444 15.2591 3.34178 15.2662C3.43912 15.2732 3.53648 15.2529 3.62286 15.2074L4.90996 14.5308C4.84433 14.4718 4.79473 14.3971 4.76576 14.3137C4.73679 14.2303 4.72941 14.141 4.7443 14.054L5.01102 12.4989Z" fill="var(--fill-0, #EFB616)"/>
</g>
</svg>
