<svg preserveAspectRatio="none" width="100%" height="100%" overflow="visible" style="display: block;" viewBox="0 0 16.3462 16.3462" fill="none" xmlns="http://www.w3.org/2000/svg">
<g id="Layer 2">
<path id="Vector" d="M14.7803 6.06775C14.6383 5.95932 14.5274 5.81542 14.4588 5.65052C14.3901 5.48562 14.3661 5.30555 14.3892 5.12842C14.5774 3.65552 14.4595 2.79602 14.0046 2.34155C13.5491 1.88672 12.6899 1.76733 11.2178 1.95776C11.0405 1.98013 10.8605 1.95569 10.6957 1.88687C10.5308 1.81806 10.3868 1.70728 10.2781 1.56555C9.43213 0.48303 8.78247 0 8.17163 0C7.56152 0 6.91186 0.482302 6.06592 1.56446C5.95678 1.70573 5.81274 1.81615 5.64797 1.88485C5.48321 1.95356 5.30339 1.97818 5.12622 1.9563C3.24023 1.71203 2.64551 2.03284 2.33936 2.33936C1.88525 2.79311 1.76733 3.65261 1.95556 5.12659C1.97855 5.30376 1.95451 5.48387 1.88585 5.64881C1.8172 5.81376 1.70636 5.95774 1.56445 6.06629C0.482662 6.91079 0 7.56006 0 8.17163C0 8.78357 0.482662 9.43323 1.56592 10.2784C1.70786 10.3869 1.81875 10.5308 1.88741 10.6957C1.95606 10.8606 1.98008 11.0406 1.95703 11.2178C1.76878 12.6907 1.88671 13.5502 2.34155 14.0046C2.79638 14.4587 3.6548 14.5781 5.12842 14.3884C5.30564 14.3664 5.48554 14.391 5.65035 14.4598C5.81515 14.5286 5.95915 14.6392 6.06812 14.7807C6.91406 15.8632 7.56372 16.3462 8.17456 16.3462C8.78467 16.3462 9.43433 15.8639 10.2803 14.7818C10.3892 14.6402 10.5332 14.5296 10.698 14.4608C10.8628 14.3921 11.0428 14.3677 11.22 14.3899C13.1052 14.6331 13.7 14.3134 14.0068 14.0069C14.4609 13.5531 14.5789 12.6936 14.3906 11.2196C14.3676 11.0425 14.3917 10.8624 14.4603 10.6974C14.529 10.5325 14.6398 10.3885 14.7817 10.2799C15.8635 9.43544 16.3462 8.78617 16.3462 8.1746C16.3462 7.5626 15.8635 6.91296 14.7803 6.06775Z" fill="var(--fill-0, #2196F3)"/>
<path id="Vector_2" d="M6.68619 10.5213L5.32617 9.16109C5.14858 8.98348 5.04882 8.74259 5.04883 8.49142C5.04884 8.24026 5.14862 7.99938 5.32622 7.82178C5.50381 7.64419 5.74482 7.54426 5.99597 7.54424C6.24712 7.54421 6.488 7.64395 6.66562 7.82151L7.32003 8.47568L9.67174 5.86238C9.75494 5.76992 9.85554 5.69476 9.96779 5.64119C10.08 5.58761 10.2018 5.55667 10.326 5.55014C10.4502 5.5436 10.5745 5.5616 10.6917 5.60309C10.809 5.64459 10.9169 5.70878 11.0093 5.79199C11.196 5.96002 11.3083 6.19531 11.3215 6.44612C11.3347 6.69692 11.2477 6.9427 11.0797 7.1294L8.06007 10.4852C7.97405 10.5808 7.86947 10.6579 7.75271 10.7117C7.63594 10.7656 7.50943 10.7951 7.38089 10.7985C7.25234 10.8019 7.12445 10.779 7.00502 10.7314C6.88558 10.6837 6.7771 10.6123 6.68619 10.5213Z" fill="var(--fill-0, #F2F2F2)"/>
</g>
</svg>
