<svg preserveAspectRatio="none" width="100%" height="100%" overflow="visible" style="display: block;" viewBox="0 0 24 24" fill="none" xmlns="http://www.w3.org/2000/svg">
<g id="check (1) 1">
<path id="Vector" d="M14.9697 8.96973L10.4997 13.4397L9.02966 11.9697C8.73566 11.6757 8.26166 11.6757 7.96766 11.9697C7.67366 12.2637 7.67366 12.7377 7.96766 13.0317L9.96866 15.0327C10.1157 15.1797 10.3077 15.2517 10.4997 15.2517C10.6917 15.2517 10.8837 15.1797 11.0307 15.0327L16.0317 10.0317C16.3257 9.73773 16.3257 9.26373 16.0317 8.96973C15.7377 8.67573 15.2637 8.67573 14.9697 8.96973ZM21.6477 10.5987C21.4647 10.2147 21.2037 9.90873 20.6787 9.29373C20.3547 8.91573 20.1927 8.71173 20.0997 8.27073C19.9467 7.55373 19.9677 6.60873 19.8117 6.16773C19.4817 5.23773 18.7617 4.51473 17.8287 4.18473C17.4267 4.04373 17.0247 4.01073 16.2237 3.94773C15.4557 3.88773 15.2847 3.81273 14.7027 3.31773C14.0907 2.79573 13.7817 2.53473 13.4007 2.35173C12.5097 1.92573 11.4897 1.92573 10.5987 2.35173C10.2147 2.53473 9.29666 3.32073 9.29666 3.32073C9.09566 3.49173 8.99366 3.57873 8.90966 3.63573C8.52866 3.89373 8.28866 3.91173 7.77566 3.95073C6.97166 4.01373 6.56966 4.04673 6.17066 4.18773C5.24066 4.51773 4.51766 5.23773 4.18766 6.17073C4.04666 6.56973 4.01366 6.97473 3.95066 7.77873C3.89366 8.51973 3.80666 8.72673 3.32066 9.29673C2.79866 9.90873 2.53766 10.2177 2.35466 10.5987C1.92866 11.4897 1.92866 12.5097 2.35466 13.4007C2.53766 13.7847 2.79866 14.0907 3.32366 14.7057C3.79766 15.2637 3.89666 15.4857 3.95366 16.2267C4.01666 17.0307 4.04966 17.4327 4.19066 17.8317C4.52066 18.7617 5.24066 19.4847 6.17366 19.8147C6.57266 19.9557 6.97466 19.9887 7.77866 20.0517C8.54666 20.1117 8.72066 20.1837 9.30266 20.6817C9.91466 21.2037 10.2207 21.4647 10.6047 21.6477C11.0487 21.8607 11.5287 21.9657 12.0057 21.9657C12.4827 21.9657 12.9627 21.8607 13.4067 21.6477C13.7907 21.4647 14.0967 21.2037 14.7117 20.6787C15.2667 20.2047 15.5127 20.1057 16.2357 20.0487C17.0367 19.9857 17.4387 19.9527 17.8407 19.8117C18.7707 19.4817 19.4937 18.7617 19.8237 17.8287C19.9647 17.4297 19.9977 17.0277 20.0607 16.2237C20.0997 15.7287 20.1237 15.4677 20.3757 15.0897C20.7867 14.4747 21.4407 13.8687 21.6597 13.3977C22.0737 12.5097 22.0737 11.4897 21.6477 10.5987ZM20.2947 12.7557C20.2017 12.9897 19.3827 13.8597 19.1187 14.2587C18.8787 14.6187 18.7137 15.0147 18.6297 15.4377C18.5487 15.8397 18.4647 17.1477 18.3987 17.3337C18.2217 17.8347 17.8317 18.2247 17.3307 18.4017C17.1957 18.4497 15.8367 18.5517 15.4347 18.6327C15.0117 18.7167 14.6127 18.8817 14.2557 19.1217C13.8657 19.3827 12.9687 20.1927 12.7527 20.2947C12.2727 20.5227 11.7237 20.5227 11.2437 20.2947C11.0397 20.1987 10.1217 19.3737 9.74066 19.1187C9.38066 18.8787 8.98466 18.7137 8.56166 18.6297C8.09366 18.5367 6.90266 18.4797 6.66866 18.3987C6.16766 18.2217 5.77766 17.8317 5.60066 17.3307C5.52566 17.1147 5.49566 16.7577 5.44466 16.1037C5.42066 15.7917 5.40566 15.6207 5.36966 15.4377C5.28566 15.0147 5.12066 14.6157 4.88066 14.2587C4.77566 14.1027 4.66466 13.9707 4.46066 13.7337C4.03766 13.2357 3.80366 12.9627 3.70466 12.7557C3.47666 12.2757 3.47666 11.7267 3.70466 11.2467C3.80366 11.0397 4.03766 10.7667 4.46066 10.2687C4.66466 10.0317 4.77566 9.89973 4.88066 9.74373C5.12066 9.38373 5.28566 8.98773 5.36966 8.56473C5.40566 8.38173 5.42066 8.20773 5.44466 7.89573C5.49566 7.24473 5.52566 6.88473 5.60066 6.67173C5.77766 6.17073 6.16766 5.78073 6.66866 5.60373C6.88466 5.52873 7.24166 5.49873 7.89566 5.44773C8.20766 5.42373 8.37866 5.40873 8.56466 5.37273C8.98766 5.28873 9.38666 5.12373 9.74366 4.88373C9.89966 4.77873 10.0317 4.66773 10.2687 4.46373C10.7667 4.04073 11.0397 3.80673 11.2467 3.70773C11.7267 3.47973 12.2757 3.47973 12.7557 3.70773C12.9627 3.80673 13.2357 4.04073 13.7337 4.46373C14.5167 5.12973 15.0777 5.36673 16.1067 5.44773C16.7577 5.49873 17.1177 5.52873 17.3337 5.60373C17.8347 5.78073 18.2247 6.17073 18.4017 6.67173C18.4797 6.89373 18.5427 8.10873 18.6327 8.56773C18.7167 8.99073 18.8817 9.38973 19.1217 9.74673C19.3377 10.0707 20.2287 11.0787 20.2977 11.2497C20.5227 11.7237 20.5227 12.2757 20.2947 12.7557Z" fill="var(--fill-0, #00C46F)"/>
</g>
</svg>
