<svg preserveAspectRatio="none" width="100%" height="100%" overflow="visible" style="display: block;" viewBox="0 0 28.4444 28.4444" fill="none" xmlns="http://www.w3.org/2000/svg">
<g id="iconamoon:arrow-down-2-fill">
<rect width="28.4444" height="28.4444" rx="14.2222" fill="url(#paint0_linear_0_9)"/>
<path id="Vector" fill-rule="evenodd" clip-rule="evenodd" d="M11.5566 18.6679C11.5567 18.8437 11.6088 19.0155 11.7065 19.1617C11.8042 19.3078 11.943 19.4217 12.1054 19.489C12.2678 19.5563 12.4465 19.5739 12.6189 19.5396C12.7913 19.5053 12.9497 19.4207 13.074 19.2964L17.5186 14.8518C17.6852 14.6851 17.7789 14.459 17.7789 14.2233C17.7789 13.9876 17.6852 13.7615 17.5186 13.5948L13.074 9.15024C12.9497 9.02596 12.7913 8.94133 12.6189 8.90704C12.4465 8.87276 12.2678 8.89036 12.1054 8.95763C11.943 9.02489 11.8042 9.1388 11.7065 9.28495C11.6088 9.43109 11.5567 9.60292 11.5566 9.7787V18.6679Z" fill="var(--fill-0, #040102)"/>
</g>
<defs>
<linearGradient id="paint0_linear_0_9" x1="0" y1="14.2222" x2="28.4444" y2="14.2222" gradientUnits="userSpaceOnUse">
<stop stop-color="#FBBD08"/>
<stop offset="0.25" stop-color="#F47B20"/>
<stop offset="0.5" stop-color="#C4272E"/>
<stop offset="0.75" stop-color="#8B1A4A"/>
<stop offset="1" stop-color="#3D1053"/>
</linearGradient>
</defs>
</svg>
