<svg preserveAspectRatio="none" width="100%" height="100%" overflow="visible" style="display: block;" viewBox="0 0 20.833 20.833" fill="none" xmlns="http://www.w3.org/2000/svg">
  <g id="majesticons:eye-line">
    <path
      d="M1.19576 10.4574C1.6769 11.4543 4.38833 16.4899 9.97689 16.4899C15.5654 16.4899 18.2769 11.4543 18.758 10.4574C18.8112 10.3475 18.8112 10.2253 18.758 10.1154C18.2769 9.11851 15.5654 4.08468 9.97689 4.08468C4.38833 4.08468 1.6769 9.12031 1.19576 10.1172C1.16976 10.1705 1.15625 10.2289 1.15625 10.2882C1.15625 10.3475 1.16976 10.406 1.19576 10.4592"
      stroke="var(--stroke-0, #4F586D)"
      stroke-opacity="1"
      stroke-width="1.7363"
      stroke-linecap="round"
      stroke-linejoin="round"
    />
    <path
      d="M12.6335 10.2135C12.6525 10.8925 12.4109 11.553 11.9582 12.0595C11.5055 12.566 10.845 12.8076 10.166 12.7886C9.48696 12.7696 8.84099 12.4914 8.36067 12.011C7.88034 11.5307 7.60212 10.8847 7.58312 10.2057C7.56411 9.52672 7.80577 8.8662 8.25848 8.35976C8.71119 7.85332 9.37171 7.61166 10.0507 7.63066C10.7297 7.64967 11.3757 7.92789 11.856 8.40821C12.3363 8.88854 12.6146 9.53451 12.6335 10.2135Z"
      stroke="var(--stroke-0, #4F586D)"
      stroke-opacity="1"
      stroke-width="1.7363"
      stroke-linecap="round"
      stroke-linejoin="round"
    />
  </g>
</svg>
