<svg preserveAspectRatio="none" width="100%" height="100%" overflow="visible" style="display: block;" viewBox="0 0 20.833 20.833" fill="none" xmlns="http://www.w3.org/2000/svg">
<g id="majesticons:eye-off-line">
<path id="Vector" d="M5.54645 5.29153C6.88649 4.4949 8.41796 4.07772 9.97689 4.08468C15.5654 4.08468 18.2769 9.12031 18.758 10.1172C18.8112 10.2262 18.8112 10.3484 18.758 10.4583C18.4461 11.1034 17.2021 13.4373 14.8504 15.0048M11.7491 16.3127C11.1658 16.4311 10.5721 16.4905 9.97689 16.4899C4.38833 16.4899 1.6769 11.4543 1.19576 10.4574C1.16976 10.4042 1.15625 10.3457 1.15625 10.2864C1.15625 10.2271 1.16976 10.1687 1.19576 10.1154C1.38981 9.71488 1.94007 8.6693 2.88819 7.55903M8.20471 8.306C8.71115 7.85329 9.37167 7.61163 10.0507 7.63064C10.7297 7.64964 11.3757 7.92786 11.856 8.40818C12.3363 8.88851 12.6145 9.53448 12.6335 10.2135C12.6525 10.8925 12.4109 11.553 11.9582 12.0595M2.0021 2.3125L17.9517 18.2621" stroke="var(--stroke-0, #4F586D)" stroke-opacity="1" stroke-width="1.7363" stroke-linecap="round" stroke-linejoin="round"/>
</g>
</svg>
