<svg preserveAspectRatio="none" width="100%" height="100%" overflow="visible" style="display: block;" viewBox="0 0 18.5182 18.5182" fill="none" xmlns="http://www.w3.org/2000/svg">
<g id="lock">
<path id="Vector" d="M12.7318 8.10197V5.2085C12.7318 4.28762 12.366 3.40446 11.7148 2.7533C11.0636 2.10214 10.1805 1.73633 9.2596 1.73633C8.33873 1.73633 7.45557 2.10214 6.80441 2.7533C6.15325 3.40446 5.78744 4.28762 5.78744 5.2085V8.10197M5.20874 16.7824H13.3105C13.7709 16.7824 14.2125 16.5995 14.5381 16.2739C14.8636 15.9483 15.0466 15.5067 15.0466 15.0463V9.83806C15.0466 9.37762 14.8636 8.93604 14.5381 8.61046C14.2125 8.28488 13.7709 8.10197 13.3105 8.10197H5.20874C4.7483 8.10197 4.30672 8.28488 3.98114 8.61046C3.65556 8.93604 3.47266 9.37762 3.47266 9.83806V15.0463C3.47266 15.5067 3.65556 15.9483 3.98114 16.2739C4.30672 16.5995 4.7483 16.7824 5.20874 16.7824Z" stroke="var(--stroke-0, #F47B20)" stroke-width="1.73608" stroke-linecap="round" stroke-linejoin="round"/>
</g>
</svg>
