<svg preserveAspectRatio="none" width="100%" height="100%" overflow="visible" style="display: block;" viewBox="0 0 13.5415 18.7504" fill="none" xmlns="http://www.w3.org/2000/svg">
<g id="Group">
<path id="Vector" d="M8.50037 11.9796H8.50645M5.03428 11.9796H5.04035" stroke="var(--stroke-0, white)" stroke-opacity="0.8" stroke-width="1.96756" stroke-linecap="round" stroke-linejoin="round"/>
<path id="Vector_2" d="M0.694434 11.9797C0.694434 11.1818 0.851602 10.3916 1.15696 9.65442C1.46233 8.91721 1.9099 8.24736 2.47414 7.68312C3.03838 7.11889 3.70822 6.67131 4.44543 6.36595C5.18264 6.06059 5.97278 5.90342 6.77073 5.90342C7.56868 5.90342 8.35882 6.06059 9.09603 6.36595C9.83324 6.67131 10.5031 7.11889 11.0673 7.68312C11.6316 8.24736 12.0791 8.91721 12.3845 9.65442C12.6899 10.3916 12.847 11.1818 12.847 11.9797C12.847 13.5912 12.2068 15.1368 11.0673 16.2763C9.92779 17.4158 8.38226 18.056 6.77073 18.056C5.1592 18.056 3.61367 17.4158 2.47414 16.2763C1.33461 15.1368 0.694434 13.5912 0.694434 11.9797Z" stroke="var(--stroke-0, white)" stroke-opacity="0.8" stroke-width="1.38887"/>
<path id="Vector_3" d="M10.6748 7.20475V4.60062C10.6748 3.56464 10.2632 2.57108 9.53069 1.83853C8.79813 1.10598 7.80458 0.694434 6.76859 0.694434C5.73261 0.694434 4.73905 1.10598 4.0065 1.83853C3.27395 2.57108 2.8624 3.56464 2.8624 4.60062V7.20475" stroke="var(--stroke-0, white)" stroke-opacity="0.8" stroke-width="1.38887" stroke-linecap="round"/>
</g>
</svg>
