<svg preserveAspectRatio="none" width="100%" height="100%" overflow="visible" style="display: block;" viewBox="0 0 18.5182 18.5183" fill="none" xmlns="http://www.w3.org/2000/svg">
<g id="user 1" clip-path="url(#clip0_0_26)">
<path id="Vector" d="M9.12632 8.9203C10.3518 8.9203 11.4128 8.48077 12.28 7.61358C13.1469 6.74653 13.5866 5.68564 13.5866 4.46001C13.5866 3.23481 13.1471 2.17377 12.2799 1.30644C11.4127 0.43953 10.3517 0 9.12632 0C7.90069 0 6.83979 0.43953 5.97274 1.30658C5.10569 2.17363 4.66602 3.23467 4.66602 4.46001C4.66602 5.68564 5.10569 6.74667 5.97274 7.61372C6.84008 8.48063 7.90111 8.9203 9.12632 8.9203ZM6.74019 2.07389C7.40549 1.40859 8.18594 1.08519 9.12632 1.08519C10.0666 1.08519 10.8471 1.40859 11.5126 2.07389C12.1779 2.73933 12.5014 3.51992 12.5014 4.46001C12.5014 5.40039 12.1779 6.18083 11.5126 6.84627C10.8471 7.51172 10.0666 7.83511 9.12632 7.83511C8.18622 7.83511 7.40577 7.51157 6.74019 6.84627C6.07475 6.18097 5.75121 5.40039 5.75121 4.46001C5.75121 3.51992 6.07475 2.73933 6.74019 2.07389Z" fill="var(--fill-0, white)" fill-opacity="0.8"/>
<path id="Vector_2" d="M16.9319 14.2418C16.9069 13.881 16.8564 13.4874 16.7819 13.0717C16.7067 12.653 16.61 12.2571 16.4941 11.8953C16.3743 11.5213 16.2117 11.152 16.0104 10.7981C15.8017 10.4307 15.5564 10.1109 15.2812 9.84766C14.9934 9.5723 14.641 9.35091 14.2336 9.18942C13.8275 9.02879 13.3775 8.94741 12.8962 8.94741C12.7072 8.94741 12.5243 9.02497 12.1713 9.25484C11.954 9.39654 11.6998 9.56043 11.4161 9.7417C11.1735 9.89626 10.8449 10.0411 10.439 10.1722C10.043 10.3003 9.6409 10.3653 9.24389 10.3653C8.84717 10.3653 8.44508 10.3003 8.04878 10.1722C7.6433 10.0412 7.31453 9.8964 7.07237 9.74184C6.79136 9.56227 6.53705 9.39838 6.31651 9.2547C5.96373 9.02483 5.78091 8.94727 5.59187 8.94727C5.11038 8.94727 4.66053 9.02879 4.25463 9.18957C3.84745 9.35077 3.49495 9.57216 3.20687 9.8478C2.93165 10.1112 2.68639 10.4309 2.47785 10.7981C2.27681 11.152 2.11405 11.5212 1.99424 11.8954C1.87853 12.2572 1.78175 12.653 1.70659 13.0717C1.63199 13.4868 1.58155 13.8806 1.55655 14.2423C1.53196 14.5959 1.51953 14.9639 1.51953 15.3358C1.51953 16.3024 1.82682 17.085 2.43278 17.6621C3.03126 18.2317 3.82301 18.5204 4.78613 18.5204H13.7028C14.6656 18.5204 15.4574 18.2317 16.056 17.6621C16.6621 17.0854 16.9694 16.3026 16.9694 15.3356C16.9692 14.9625 16.9567 14.5945 16.9319 14.2418ZM15.3078 16.8759C14.9123 17.2523 14.3873 17.4352 13.7026 17.4352H4.78613C4.10134 17.4352 3.57633 17.2523 3.18102 16.876C2.7932 16.5069 2.60473 16.0029 2.60473 15.3358C2.60473 14.9888 2.61617 14.6462 2.63906 14.3173C2.66138 13.9946 2.70701 13.6401 2.77469 13.2635C2.84152 12.8915 2.92657 12.5423 3.02773 12.2263C3.12479 11.9232 3.25717 11.6232 3.42134 11.3341C3.57802 11.0586 3.7583 10.8222 3.95723 10.6318C4.1433 10.4536 4.37783 10.3078 4.65418 10.1985C4.90976 10.0973 5.19698 10.0419 5.5088 10.0336C5.5468 10.0538 5.61448 10.0924 5.72411 10.1639C5.9472 10.3092 6.20433 10.4751 6.48859 10.6566C6.80902 10.8609 7.22185 11.0455 7.71507 11.2047C8.21931 11.3677 8.73358 11.4505 9.24403 11.4505C9.75449 11.4505 10.2689 11.3677 10.7729 11.2048C11.2665 11.0453 11.6792 10.8609 12 10.6564C12.2909 10.4704 12.5409 10.3094 12.764 10.1639C12.8736 10.0925 12.9413 10.0538 12.9793 10.0336C13.2912 10.0419 13.5785 10.0973 13.8342 10.1985C14.1104 10.3078 14.3449 10.4538 14.531 10.6318C14.7299 10.8221 14.9102 11.0585 15.0669 11.3342C15.2312 11.6232 15.3637 11.9234 15.4606 12.2262C15.5619 12.5426 15.6471 12.8916 15.7138 13.2633C15.7813 13.6407 15.8271 13.9953 15.8494 14.3174V14.3177C15.8725 14.6453 15.884 14.9878 15.8842 15.3358C15.884 16.0031 15.6956 16.5069 15.3078 16.8759Z" fill="var(--fill-0, white)" fill-opacity="0.8"/>
</g>
<defs>
<clipPath id="clip0_0_26">
<rect width="18.5182" height="18.5183" fill="white"/>
</clipPath>
</defs>
</svg>
