<svg preserveAspectRatio="none" width="100%" height="100%" overflow="visible" style="display: block;" viewBox="0 0 18.5182 18.5183" fill="none" xmlns="http://www.w3.org/2000/svg">
<g id="user 1" clip-path="url(#clip0_0_9)">
<path id="Vector" d="M9.12632 8.9203C10.3518 8.9203 11.4128 8.48077 12.28 7.61358C13.1469 6.74653 13.5866 5.68564 13.5866 4.46001C13.5866 3.23481 13.1471 2.17377 12.2799 1.30644C11.4127 0.43953 10.3517 0 9.12632 0C7.90069 0 6.83979 0.43953 5.97274 1.30658C5.10569 2.17363 4.66602 3.23467 4.66602 4.46001C4.66602 5.68564 5.10569 6.74667 5.97274 7.61372C6.84008 8.48063 7.90111 8.9203 9.12632 8.9203ZM6.74019 2.07389C7.40549 1.40859 8.18594 1.08519 9.12632 1.08519C10.0666 1.08519 10.8471 1.40859 11.5126 2.07389C12.1779 2.73933 12.5014 3.51992 12.5014 4.46001C12.5014 5.40039 12.1779 6.18083 11.5126 6.84627C10.8471 7.51172 10.0666 7.83511 9.12632 7.83511C8.18622 7.83511 7.40577 7.51157 6.74019 6.84627C6.07475 6.18097 5.75121 5.40039 5.75121 4.46001C5.75121 3.51992 6.07475 2.73933 6.74019 2.07389Z" fill="var(--fill-0, white)"/>
<path id="Vector_2" d="M16.9319 14.2399C16.9069 13.879 16.8564 13.4854 16.7819 13.0698C16.7067 12.651 16.61 12.2551 16.4941 11.8933C16.3743 11.5193 16.2117 11.15 16.0104 10.7961C15.8017 10.4288 15.5564 10.1089 15.2812 9.84571C14.9934 9.57035 14.641 9.34896 14.2336 9.18747C13.8275 9.02683 13.3775 8.94545 12.8962 8.94545C12.7072 8.94545 12.5243 9.02302 12.1713 9.25288C11.954 9.39459 11.6998 9.55848 11.4161 9.73974C11.1735 9.89431 10.8449 10.0391 10.439 10.1702C10.043 10.2984 9.6409 10.3634 9.24389 10.3634C8.84717 10.3634 8.44508 10.2984 8.04878 10.1702C7.6433 10.0393 7.31453 9.89445 7.07237 9.73989C6.79136 9.56032 6.53705 9.39643 6.31651 9.25274C5.96373 9.02288 5.78091 8.94531 5.59187 8.94531C5.11038 8.94531 4.66053 9.02683 4.25463 9.18761C3.84745 9.34882 3.49495 9.57021 3.20687 9.84585C2.93165 10.1092 2.68639 10.4289 2.47785 10.7961C2.27681 11.15 2.11405 11.5192 1.99424 11.8935C1.87853 12.2553 1.78175 12.651 1.70659 13.0698C1.63199 13.4849 1.58155 13.8786 1.55655 14.2403C1.53196 14.5939 1.51953 14.962 1.51953 15.3338C1.51953 16.3005 1.82682 17.0831 2.43278 17.6602C3.03126 18.2297 3.82301 18.5185 4.78613 18.5185H13.7028C14.6656 18.5185 15.4574 18.2297 16.056 17.6602C16.6621 17.0835 16.9694 16.3006 16.9694 15.3337C16.9692 14.9606 16.9567 14.5925 16.9319 14.2399ZM15.3078 16.874C14.9123 17.2503 14.3873 17.4333 13.7026 17.4333H4.78613C4.10134 17.4333 3.57633 17.2503 3.18102 16.8741C2.7932 16.5049 2.60473 16.001 2.60473 15.3338C2.60473 14.9868 2.61617 14.6442 2.63906 14.3153C2.66138 13.9926 2.70701 13.6382 2.77469 13.2615C2.84152 12.8895 2.92657 12.5404 3.02773 12.2243C3.12479 11.9213 3.25717 11.6212 3.42134 11.3321C3.57802 11.0566 3.7583 10.8203 3.95723 10.6298C4.1433 10.4517 4.37783 10.3059 4.65418 10.1965C4.90976 10.0954 5.19698 10.04 5.5088 10.0316C5.5468 10.0518 5.61448 10.0904 5.72411 10.1619C5.9472 10.3073 6.20433 10.4731 6.48859 10.6547C6.80902 10.859 7.22185 11.0435 7.71507 11.2027C8.21931 11.3658 8.73358 11.4486 9.24403 11.4486C9.75449 11.4486 10.2689 11.3658 10.7729 11.2029C11.2665 11.0434 11.6792 10.859 12 10.6544C12.2909 10.4685 12.5409 10.3074 12.764 10.1619C12.8736 10.0905 12.9413 10.0518 12.9793 10.0316C13.2912 10.04 13.5785 10.0954 13.8342 10.1965C14.1104 10.3059 14.3449 10.4518 14.531 10.6298C14.7299 10.8201 14.9102 11.0565 15.0669 11.3323C15.2312 11.6212 15.3637 11.9214 15.4606 12.2242C15.5619 12.5407 15.6471 12.8896 15.7138 13.2614C15.7813 13.6387 15.8271 13.9933 15.8494 14.3155V14.3157C15.8725 14.6434 15.884 14.9859 15.8842 15.3338C15.884 16.0011 15.6956 16.5049 15.3078 16.874Z" fill="var(--fill-0, white)"/>
</g>
<defs>
<clipPath id="clip0_0_9">
<rect width="18.5182" height="18.5183" fill="white"/>
</clipPath>
</defs>
</svg>
