<svg preserveAspectRatio="none" width="100%" height="100%" overflow="visible" style="display: block;" viewBox="0 0 313 313" fill="none" xmlns="http://www.w3.org/2000/svg">
<path id="Vector" d="M0 2.75H6M3.25 0V6M13.5 2.75H19.5M16.75 0V6M27 2.75H33M30.25 0V6M0 16.25H6M3.25 13.5V19.5M13.5 16.25H19.5M16.75 13.5V19.5M27 16.25H33M30.25 13.5V19.5M0 29.75H6M3.25 27V33M13.5 29.75H19.5M16.75 27V33M27 29.75H33M30.25 27V33M40 2.75H46M43.25 0V6M53.5 2.75H59.5M56.75 0V6M67 2.75H73M70.25 0V6M40 16.25H46M43.25 13.5V19.5M53.5 16.25H59.5M56.75 13.5V19.5M67 16.25H73M70.25 13.5V19.5M40 29.75H46M43.25 27V33M53.5 29.75H59.5M56.75 27V33M67 29.75H73M70.25 27V33M80 2.75H86M83.25 0V6M93.5 2.75H99.5M96.75 0V6M107 2.75H113M110.25 0V6M80 16.25H86M83.25 13.5V19.5M93.5 16.25H99.5M96.75 13.5V19.5M107 16.25H113M110.25 13.5V19.5M80 29.75H86M83.25 27V33M93.5 29.75H99.5M96.75 27V33M107 29.75H113M110.25 27V33M120 2.75H126M123.25 0V6M133.5 2.75H139.5M136.75 0V6M147 2.75H153M150.25 0V6M120 16.25H126M123.25 13.5V19.5M133.5 16.25H139.5M136.75 13.5V19.5M147 16.25H153M150.25 13.5V19.5M120 29.75H126M123.25 27V33M133.5 29.75H139.5M136.75 27V33M147 29.75H153M150.25 27V33M160 2.75H166M163.25 0V6M173.5 2.75H179.5M176.75 0V6M187 2.75H193M190.25 0V6M160 16.25H166M163.25 13.5V19.5M173.5 16.25H179.5M176.75 13.5V19.5M187 16.25H193M190.25 13.5V19.5M160 29.75H166M163.25 27V33M173.5 29.75H179.5M176.75 27V33M187 29.75H193M190.25 27V33M200 2.75H206M203.25 0V6M213.5 2.75H219.5M216.75 0V6M227 2.75H233M230.25 0V6M200 16.25H206M203.25 13.5V19.5M213.5 16.25H219.5M216.75 13.5V19.5M227 16.25H233M230.25 13.5V19.5M200 29.75H206M203.25 27V33M213.5 29.75H219.5M216.75 27V33M227 29.75H233M230.25 27V33M240 2.75H246M243.25 0V6M253.5 2.75H259.5M256.75 0V6M267 2.75H273M270.25 0V6M240 16.25H246M243.25 13.5V19.5M253.5 16.25H259.5M256.75 13.5V19.5M267 16.25H273M270.25 13.5V19.5M240 29.75H246M243.25 27V33M253.5 29.75H259.5M256.75 27V33M267 29.75H273M270.25 27V33M280 2.75H286M283.25 0V6M293.5 2.75H299.5M296.75 0V6M307 2.75H313M310.25 0V6M280 16.25H286M283.25 13.5V19.5M293.5 16.25H299.5M296.75 13.5V19.5M307 16.25H313M310.25 13.5V19.5M280 29.75H286M283.25 27V33M293.5 29.75H299.5M296.75 27V33M307 29.75H313M310.25 27V33M0 42.75H6M3.25 40V46M13.5 42.75H19.5M16.75 40V46M27 42.75H33M30.25 40V46M0 56.25H6M3.25 53.5V59.5M13.5 56.25H19.5M16.75 53.5V59.5M27 56.25H33M30.25 53.5V59.5M0 69.75H6M3.25 67V73M13.5 69.75H19.5M16.75 67V73M27 69.75H33M30.25 67V73M40 42.75H46M43.25 40V46M53.5 42.75H59.5M56.75 40V46M67 42.75H73M70.25 40V46M40 56.25H46M43.25 53.5V59.5M53.5 56.25H59.5M56.75 53.5V59.5M67 56.25H73M70.25 53.5V59.5M40 69.75H46M43.25 67V73M53.5 69.75H59.5M56.75 67V73M67 69.75H73M70.25 67V73M80 42.75H86M83.25 40V46M93.5 42.75H99.5M96.75 40V46M107 42.75H113M110.25 40V46M80 56.25H86M83.25 53.5V59.5M93.5 56.25H99.5M96.75 53.5V59.5M107 56.25H113M110.25 53.5V59.5M80 69.75H86M83.25 67V73M93.5 69.75H99.5M96.75 67V73M107 69.75H113M110.25 67V73M120 42.75H126M123.25 40V46M133.5 42.75H139.5M136.75 40V46M147 42.75H153M150.25 40V46M120 56.25H126M123.25 53.5V59.5M133.5 56.25H139.5M136.75 53.5V59.5M147 56.25H153M150.25 53.5V59.5M120 69.75H126M123.25 67V73M133.5 69.75H139.5M136.75 67V73M147 69.75H153M150.25 67V73M160 42.75H166M163.25 40V46M173.5 42.75H179.5M176.75 40V46M187 42.75H193M190.25 40V46M160 56.25H166M163.25 53.5V59.5M173.5 56.25H179.5M176.75 53.5V59.5M187 56.25H193M190.25 53.5V59.5M160 69.75H166M163.25 67V73M173.5 69.75H179.5M176.75 67V73M187 69.75H193M190.25 67V73M200 42.75H206M203.25 40V46M213.5 42.75H219.5M216.75 40V46M227 42.75H233M230.25 40V46M200 56.25H206M203.25 53.5V59.5M213.5 56.25H219.5M216.75 53.5V59.5M227 56.25H233M230.25 53.5V59.5M200 69.75H206M203.25 67V73M213.5 69.75H219.5M216.75 67V73M227 69.75H233M230.25 67V73M240 42.75H246M243.25 40V46M253.5 42.75H259.5M256.75 40V46M267 42.75H273M270.25 40V46M240 56.25H246M243.25 53.5V59.5M253.5 56.25H259.5M256.75 53.5V59.5M267 56.25H273M270.25 53.5V59.5M240 69.75H246M243.25 67V73M253.5 69.75H259.5M256.75 67V73M267 69.75H273M270.25 67V73M280 42.75H286M283.25 40V46M293.5 42.75H299.5M296.75 40V46M307 42.75H313M310.25 40V46M280 56.25H286M283.25 53.5V59.5M293.5 56.25H299.5M296.75 53.5V59.5M307 56.25H313M310.25 53.5V59.5M280 69.75H286M283.25 67V73M293.5 69.75H299.5M296.75 67V73M307 69.75H313M310.25 67V73M0 82.75H6M3.25 80V86M13.5 82.75H19.5M16.75 80V86M27 82.75H33M30.25 80V86M0 96.25H6M3.25 93.5V99.5M13.5 96.25H19.5M16.75 93.5V99.5M27 96.25H33M30.25 93.5V99.5M0 109.75H6M3.25 107V113M13.5 109.75H19.5M16.75 107V113M27 109.75H33M30.25 107V113M40 82.75H46M43.25 80V86M53.5 82.75H59.5M56.75 80V86M67 82.75H73M70.25 80V86M40 96.25H46M43.25 93.5V99.5M53.5 96.25H59.5M56.75 93.5V99.5M67 96.25H73M70.25 93.5V99.5M40 109.75H46M43.25 107V113M53.5 109.75H59.5M56.75 107V113M67 109.75H73M70.25 107V113M80 82.75H86M83.25 80V86M93.5 82.75H99.5M96.75 80V86M107 82.75H113M110.25 80V86M80 96.25H86M83.25 93.5V99.5M93.5 96.25H99.5M96.75 93.5V99.5M107 96.25H113M110.25 93.5V99.5M80 109.75H86M83.25 107V113M93.5 109.75H99.5M96.75 107V113M107 109.75H113M110.25 107V113M120 82.75H126M123.25 80V86M133.5 82.75H139.5M136.75 80V86M147 82.75H153M150.25 80V86M120 96.25H126M123.25 93.5V99.5M133.5 96.25H139.5M136.75 93.5V99.5M147 96.25H153M150.25 93.5V99.5M120 109.75H126M123.25 107V113M133.5 109.75H139.5M136.75 107V113M147 109.75H153M150.25 107V113M160 82.75H166M163.25 80V86M173.5 82.75H179.5M176.75 80V86M187 82.75H193M190.25 80V86M160 96.25H166M163.25 93.5V99.5M173.5 96.25H179.5M176.75 93.5V99.5M187 96.25H193M190.25 93.5V99.5M160 109.75H166M163.25 107V113M173.5 109.75H179.5M176.75 107V113M187 109.75H193M190.25 107V113M200 82.75H206M203.25 80V86M213.5 82.75H219.5M216.75 80V86M227 82.75H233M230.25 80V86M200 96.25H206M203.25 93.5V99.5M213.5 96.25H219.5M216.75 93.5V99.5M227 96.25H233M230.25 93.5V99.5M200 109.75H206M203.25 107V113M213.5 109.75H219.5M216.75 107V113M227 109.75H233M230.25 107V113M240 82.75H246M243.25 80V86M253.5 82.75H259.5M256.75 80V86M267 82.75H273M270.25 80V86M240 96.25H246M243.25 93.5V99.5M253.5 96.25H259.5M256.75 93.5V99.5M267 96.25H273M270.25 93.5V99.5M240 109.75H246M243.25 107V113M253.5 109.75H259.5M256.75 107V113M267 109.75H273M270.25 107V113M280 82.75H286M283.25 80V86M293.5 82.75H299.5M296.75 80V86M307 82.75H313M310.25 80V86M280 96.25H286M283.25 93.5V99.5M293.5 96.25H299.5M296.75 93.5V99.5M307 96.25H313M310.25 93.5V99.5M280 109.75H286M283.25 107V113M293.5 109.75H299.5M296.75 107V113M307 109.75H313M310.25 107V113M0 122.75H6M3.25 120V126M13.5 122.75H19.5M16.75 120V126M27 122.75H33M30.25 120V126M0 136.25H6M3.25 133.5V139.5M13.5 136.25H19.5M16.75 133.5V139.5M27 136.25H33M30.25 133.5V139.5M0 149.75H6M3.25 147V153M13.5 149.75H19.5M16.75 147V153M27 149.75H33M30.25 147V153M40 122.75H46M43.25 120V126M53.5 122.75H59.5M56.75 120V126M67 122.75H73M70.25 120V126M40 136.25H46M43.25 133.5V139.5M53.5 136.25H59.5M56.75 133.5V139.5M67 136.25H73M70.25 133.5V139.5M40 149.75H46M43.25 147V153M53.5 149.75H59.5M56.75 147V153M67 149.75H73M70.25 147V153M80 122.75H86M83.25 120V126M93.5 122.75H99.5M96.75 120V126M107 122.75H113M110.25 120V126M80 136.25H86M83.25 133.5V139.5M93.5 136.25H99.5M96.75 133.5V139.5M107 136.25H113M110.25 133.5V139.5M80 149.75H86M83.25 147V153M93.5 149.75H99.5M96.75 147V153M107 149.75H113M110.25 147V153M120 122.75H126M123.25 120V126M133.5 122.75H139.5M136.75 120V126M147 122.75H153M150.25 120V126M120 136.25H126M123.25 133.5V139.5M133.5 136.25H139.5M136.75 133.5V139.5M147 136.25H153M150.25 133.5V139.5M120 149.75H126M123.25 147V153M133.5 149.75H139.5M136.75 147V153M147 149.75H153M150.25 147V153M160 122.75H166M163.25 120V126M173.5 122.75H179.5M176.75 120V126M187 122.75H193M190.25 120V126M160 136.25H166M163.25 133.5V139.5M173.5 136.25H179.5M176.75 133.5V139.5M187 136.25H193M190.25 133.5V139.5M160 149.75H166M163.25 147V153M173.5 149.75H179.5M176.75 147V153M187 149.75H193M190.25 147V153M200 122.75H206M203.25 120V126M213.5 122.75H219.5M216.75 120V126M227 122.75H233M230.25 120V126M200 136.25H206M203.25 133.5V139.5M213.5 136.25H219.5M216.75 133.5V139.5M227 136.25H233M230.25 133.5V139.5M200 149.75H206M203.25 147V153M213.5 149.75H219.5M216.75 147V153M227 149.75H233M230.25 147V153M240 122.75H246M243.25 120V126M253.5 122.75H259.5M256.75 120V126M267 122.75H273M270.25 120V126M240 136.25H246M243.25 133.5V139.5M253.5 136.25H259.5M256.75 133.5V139.5M267 136.25H273M270.25 133.5V139.5M240 149.75H246M243.25 147V153M253.5 149.75H259.5M256.75 147V153M267 149.75H273M270.25 147V153M280 122.75H286M283.25 120V126M293.5 122.75H299.5M296.75 120V126M307 122.75H313M310.25 120V126M280 136.25H286M283.25 133.5V139.5M293.5 136.25H299.5M296.75 133.5V139.5M307 136.25H313M310.25 133.5V139.5M280 149.75H286M283.25 147V153M293.5 149.75H299.5M296.75 147V153M307 149.75H313M310.25 147V153M0 162.75H6M3.25 160V166M13.5 162.75H19.5M16.75 160V166M27 162.75H33M30.25 160V166M0 176.25H6M3.25 173.5V179.5M13.5 176.25H19.5M16.75 173.5V179.5M27 176.25H33M30.25 173.5V179.5M0 189.75H6M3.25 187V193M13.5 189.75H19.5M16.75 187V193M27 189.75H33M30.25 187V193M40 162.75H46M43.25 160V166M53.5 162.75H59.5M56.75 160V166M67 162.75H73M70.25 160V166M40 176.25H46M43.25 173.5V179.5M53.5 176.25H59.5M56.75 173.5V179.5M67 176.25H73M70.25 173.5V179.5M40 189.75H46M43.25 187V193M53.5 189.75H59.5M56.75 187V193M67 189.75H73M70.25 187V193M80 162.75H86M83.25 160V166M93.5 162.75H99.5M96.75 160V166M107 162.75H113M110.25 160V166M80 176.25H86M83.25 173.5V179.5M93.5 176.25H99.5M96.75 173.5V179.5M107 176.25H113M110.25 173.5V179.5M80 189.75H86M83.25 187V193M93.5 189.75H99.5M96.75 187V193M107 189.75H113M110.25 187V193M120 162.75H126M123.25 160V166M133.5 162.75H139.5M136.75 160V166M147 162.75H153M150.25 160V166M120 176.25H126M123.25 173.5V179.5M133.5 176.25H139.5M136.75 173.5V179.5M147 176.25H153M150.25 173.5V179.5M120 189.75H126M123.25 187V193M133.5 189.75H139.5M136.75 187V193M147 189.75H153M150.25 187V193M160 162.75H166M163.25 160V166M173.5 162.75H179.5M176.75 160V166M187 162.75H193M190.25 160V166M160 176.25H166M163.25 173.5V179.5M173.5 176.25H179.5M176.75 173.5V179.5M187 176.25H193M190.25 173.5V179.5M160 189.75H166M163.25 187V193M173.5 189.75H179.5M176.75 187V193M187 189.75H193M190.25 187V193M200 162.75H206M203.25 160V166M213.5 162.75H219.5M216.75 160V166M227 162.75H233M230.25 160V166M200 176.25H206M203.25 173.5V179.5M213.5 176.25H219.5M216.75 173.5V179.5M227 176.25H233M230.25 173.5V179.5M200 189.75H206M203.25 187V193M213.5 189.75H219.5M216.75 187V193M227 189.75H233M230.25 187V193M240 162.75H246M243.25 160V166M253.5 162.75H259.5M256.75 160V166M267 162.75H273M270.25 160V166M240 176.25H246M243.25 173.5V179.5M253.5 176.25H259.5M256.75 173.5V179.5M267 176.25H273M270.25 173.5V179.5M240 189.75H246M243.25 187V193M253.5 189.75H259.5M256.75 187V193M267 189.75H273M270.25 187V193M280 162.75H286M283.25 160V166M293.5 162.75H299.5M296.75 160V166M307 162.75H313M310.25 160V166M280 176.25H286M283.25 173.5V179.5M293.5 176.25H299.5M296.75 173.5V179.5M307 176.25H313M310.25 173.5V179.5M280 189.75H286M283.25 187V193M293.5 189.75H299.5M296.75 187V193M307 189.75H313M310.25 187V193M0 202.75H6M3.25 200V206M13.5 202.75H19.5M16.75 200V206M27 202.75H33M30.25 200V206M0 216.25H6M3.25 213.5V219.5M13.5 216.25H19.5M16.75 213.5V219.5M27 216.25H33M30.25 213.5V219.5M0 229.75H6M3.25 227V233M13.5 229.75H19.5M16.75 227V233M27 229.75H33M30.25 227V233M40 202.75H46M43.25 200V206M53.5 202.75H59.5M56.75 200V206M67 202.75H73M70.25 200V206M40 216.25H46M43.25 213.5V219.5M53.5 216.25H59.5M56.75 213.5V219.5M67 216.25H73M70.25 213.5V219.5M40 229.75H46M43.25 227V233M53.5 229.75H59.5M56.75 227V233M67 229.75H73M70.25 227V233M80 202.75H86M83.25 200V206M93.5 202.75H99.5M96.75 200V206M107 202.75H113M110.25 200V206M80 216.25H86M83.25 213.5V219.5M93.5 216.25H99.5M96.75 213.5V219.5M107 216.25H113M110.25 213.5V219.5M80 229.75H86M83.25 227V233M93.5 229.75H99.5M96.75 227V233M107 229.75H113M110.25 227V233M120 202.75H126M123.25 200V206M133.5 202.75H139.5M136.75 200V206M147 202.75H153M150.25 200V206M120 216.25H126M123.25 213.5V219.5M133.5 216.25H139.5M136.75 213.5V219.5M147 216.25H153M150.25 213.5V219.5M120 229.75H126M123.25 227V233M133.5 229.75H139.5M136.75 227V233M147 229.75H153M150.25 227V233M160 202.75H166M163.25 200V206M173.5 202.75H179.5M176.75 200V206M187 202.75H193M190.25 200V206M160 216.25H166M163.25 213.5V219.5M173.5 216.25H179.5M176.75 213.5V219.5M187 216.25H193M190.25 213.5V219.5M160 229.75H166M163.25 227V233M173.5 229.75H179.5M176.75 227V233M187 229.75H193M190.25 227V233M200 202.75H206M203.25 200V206M213.5 202.75H219.5M216.75 200V206M227 202.75H233M230.25 200V206M200 216.25H206M203.25 213.5V219.5M213.5 216.25H219.5M216.75 213.5V219.5M227 216.25H233M230.25 213.5V219.5M200 229.75H206M203.25 227V233M213.5 229.75H219.5M216.75 227V233M227 229.75H233M230.25 227V233M240 202.75H246M243.25 200V206M253.5 202.75H259.5M256.75 200V206M267 202.75H273M270.25 200V206M240 216.25H246M243.25 213.5V219.5M253.5 216.25H259.5M256.75 213.5V219.5M267 216.25H273M270.25 213.5V219.5M240 229.75H246M243.25 227V233M253.5 229.75H259.5M256.75 227V233M267 229.75H273M270.25 227V233M280 202.75H286M283.25 200V206M293.5 202.75H299.5M296.75 200V206M307 202.75H313M310.25 200V206M280 216.25H286M283.25 213.5V219.5M293.5 216.25H299.5M296.75 213.5V219.5M307 216.25H313M310.25 213.5V219.5M280 229.75H286M283.25 227V233M293.5 229.75H299.5M296.75 227V233M307 229.75H313M310.25 227V233M0 242.75H6M3.25 240V246M13.5 242.75H19.5M16.75 240V246M27 242.75H33M30.25 240V246M0 256.25H6M3.25 253.5V259.5M13.5 256.25H19.5M16.75 253.5V259.5M27 256.25H33M30.25 253.5V259.5M0 269.75H6M3.25 267V273M13.5 269.75H19.5M16.75 267V273M27 269.75H33M30.25 267V273M40 242.75H46M43.25 240V246M53.5 242.75H59.5M56.75 240V246M67 242.75H73M70.25 240V246M40 256.25H46M43.25 253.5V259.5M53.5 256.25H59.5M56.75 253.5V259.5M67 256.25H73M70.25 253.5V259.5M40 269.75H46M43.25 267V273M53.5 269.75H59.5M56.75 267V273M67 269.75H73M70.25 267V273M80 242.75H86M83.25 240V246M93.5 242.75H99.5M96.75 240V246M107 242.75H113M110.25 240V246M80 256.25H86M83.25 253.5V259.5M93.5 256.25H99.5M96.75 253.5V259.5M107 256.25H113M110.25 253.5V259.5M80 269.75H86M83.25 267V273M93.5 269.75H99.5M96.75 267V273M107 269.75H113M110.25 267V273M120 242.75H126M123.25 240V246M133.5 242.75H139.5M136.75 240V246M147 242.75H153M150.25 240V246M120 256.25H126M123.25 253.5V259.5M133.5 256.25H139.5M136.75 253.5V259.5M147 256.25H153M150.25 253.5V259.5M120 269.75H126M123.25 267V273M133.5 269.75H139.5M136.75 267V273M147 269.75H153M150.25 267V273M160 242.75H166M163.25 240V246M173.5 242.75H179.5M176.75 240V246M187 242.75H193M190.25 240V246M160 256.25H166M163.25 253.5V259.5M173.5 256.25H179.5M176.75 253.5V259.5M187 256.25H193M190.25 253.5V259.5M160 269.75H166M163.25 267V273M173.5 269.75H179.5M176.75 267V273M187 269.75H193M190.25 267V273M200 242.75H206M203.25 240V246M213.5 242.75H219.5M216.75 240V246M227 242.75H233M230.25 240V246M200 256.25H206M203.25 253.5V259.5M213.5 256.25H219.5M216.75 253.5V259.5M227 256.25H233M230.25 253.5V259.5M200 269.75H206M203.25 267V273M213.5 269.75H219.5M216.75 267V273M227 269.75H233M230.25 267V273M240 242.75H246M243.25 240V246M253.5 242.75H259.5M256.75 240V246M267 242.75H273M270.25 240V246M240 256.25H246M243.25 253.5V259.5M253.5 256.25H259.5M256.75 253.5V259.5M267 256.25H273M270.25 253.5V259.5M240 269.75H246M243.25 267V273M253.5 269.75H259.5M256.75 267V273M267 269.75H273M270.25 267V273M280 242.75H286M283.25 240V246M293.5 242.75H299.5M296.75 240V246M307 242.75H313M310.25 240V246M280 256.25H286M283.25 253.5V259.5M293.5 256.25H299.5M296.75 253.5V259.5M307 256.25H313M310.25 253.5V259.5M280 269.75H286M283.25 267V273M293.5 269.75H299.5M296.75 267V273M307 269.75H313M310.25 267V273M0 282.75H6M3.25 280V286M13.5 282.75H19.5M16.75 280V286M27 282.75H33M30.25 280V286M0 296.25H6M3.25 293.5V299.5M13.5 296.25H19.5M16.75 293.5V299.5M27 296.25H33M30.25 293.5V299.5M0 309.75H6M3.25 307V313M13.5 309.75H19.5M16.75 307V313M27 309.75H33M30.25 307V313M40 282.75H46M43.25 280V286M53.5 282.75H59.5M56.75 280V286M67 282.75H73M70.25 280V286M40 296.25H46M43.25 293.5V299.5M53.5 296.25H59.5M56.75 293.5V299.5M67 296.25H73M70.25 293.5V299.5M40 309.75H46M43.25 307V313M53.5 309.75H59.5M56.75 307V313M67 309.75H73M70.25 307V313M80 282.75H86M83.25 280V286M93.5 282.75H99.5M96.75 280V286M107 282.75H113M110.25 280V286M80 296.25H86M83.25 293.5V299.5M93.5 296.25H99.5M96.75 293.5V299.5M107 296.25H113M110.25 293.5V299.5M80 309.75H86M83.25 307V313M93.5 309.75H99.5M96.75 307V313M107 309.75H113M110.25 307V313M120 282.75H126M123.25 280V286M133.5 282.75H139.5M136.75 280V286M147 282.75H153M150.25 280V286M120 296.25H126M123.25 293.5V299.5M133.5 296.25H139.5M136.75 293.5V299.5M147 296.25H153M150.25 293.5V299.5M120 309.75H126M123.25 307V313M133.5 309.75H139.5M136.75 307V313M147 309.75H153M150.25 307V313M160 282.75H166M163.25 280V286M173.5 282.75H179.5M176.75 280V286M187 282.75H193M190.25 280V286M160 296.25H166M163.25 293.5V299.5M173.5 296.25H179.5M176.75 293.5V299.5M187 296.25H193M190.25 293.5V299.5M160 309.75H166M163.25 307V313M173.5 309.75H179.5M176.75 307V313M187 309.75H193M190.25 307V313M200 282.75H206M203.25 280V286M213.5 282.75H219.5M216.75 280V286M227 282.75H233M230.25 280V286M200 296.25H206M203.25 293.5V299.5M213.5 296.25H219.5M216.75 293.5V299.5M227 296.25H233M230.25 293.5V299.5M200 309.75H206M203.25 307V313M213.5 309.75H219.5M216.75 307V313M227 309.75H233M230.25 307V313M240 282.75H246M243.25 280V286M253.5 282.75H259.5M256.75 280V286M267 282.75H273M270.25 280V286M240 296.25H246M243.25 293.5V299.5M253.5 296.25H259.5M256.75 293.5V299.5M267 296.25H273M270.25 293.5V299.5M240 309.75H246M243.25 307V313M253.5 309.75H259.5M256.75 307V313M267 309.75H273M270.25 307V313M280 282.75H286M283.25 280V286M293.5 282.75H299.5M296.75 280V286M307 282.75H313M310.25 280V286M280 296.25H286M283.25 293.5V299.5M293.5 296.25H299.5M296.75 293.5V299.5M307 296.25H313M310.25 293.5V299.5M280 309.75H286M283.25 307V313M293.5 309.75H299.5M296.75 307V313M307 309.75H313M310.25 307V313" stroke="var(--stroke-0, #181818)" stroke-width="0.5"/>
</svg>
