<svg width="28" height="28" viewBox="28 28 28 28" fill="none" xmlns="http://www.w3.org/2000/svg" preserveAspectRatio="xMidYMid meet">
  <path fill-rule="evenodd" clip-rule="evenodd" d="M51.9606 37.7381L42.3485 43.2868L32.7364 37.7381L42.3485 32.1895L51.9606 37.7381ZM31.05 36.5537L40.8681 30.8861L38.3853 28.1905C38.1972 27.9863 37.9011 27.9411 37.6607 28.0799L28.8838 33.1464C28.7243 33.2385 28.625 33.3837 28.5972 33.5658C28.5694 33.748 28.6208 33.9162 28.7456 34.0517L31.05 36.5537ZM43.8127 30.8768L53.6352 36.5468L55.7858 34.1333C55.9073 33.997 55.956 33.83 55.927 33.6498C55.898 33.4695 55.7992 33.3264 55.6411 33.2351L46.8561 28.164C46.6128 28.0235 46.3119 28.0719 46.125 28.2818L43.8127 30.8768ZM52.8907 39.3591L43.2874 44.9027V56L52.5975 50.6257C52.784 50.518 52.8907 50.3331 52.8907 50.1177V39.3591ZM41.4096 56V44.9027L31.8062 39.3591V50.1177C31.8062 50.3331 31.9129 50.518 32.0995 50.6257L41.4096 56Z" fill="#3D1053"/>
</svg>
