<svg preserveAspectRatio="xMidYMid meet" width="100%" height="100%" overflow="visible" style="display: block;" viewBox="0 0 84 84" fill="none" xmlns="http://www.w3.org/2000/svg">
<g id="Frame 2147242414">
<path id="Polygon 14" d="M36.125 3.68066C39.7605 1.58173 44.2395 1.58173 47.875 3.68066L72.248 17.752C75.8834 19.8508 78.1229 23.73 78.123 27.9277V56.0723C78.1229 60.27 75.8834 64.1492 72.248 66.248L47.875 80.3193C44.2395 82.4183 39.7605 82.4183 36.125 80.3193L11.752 66.248C8.11663 64.1492 5.87712 60.27 5.87695 56.0723V27.9277C5.87712 23.73 8.11663 19.8508 11.752 17.752L36.125 3.68066Z" fill="var(--fill-0, white)" stroke="var(--stroke-0, #E0E0E0)" stroke-width="0.5"/>
<g id="fi_2760293">
<path id="Vector" d="M45.7617 50.7369C45.3172 50.9154 44.8578 51.065 44.3827 51.1744L44.1902 53.6821C44.1657 54.0024 43.8979 54.25 43.5768 54.25H40.9457C40.6246 54.25 40.3577 54.0024 40.3332 53.683L40.1407 51.1753C39.1099 50.9381 38.1466 50.5313 37.2759 49.9861L35.3641 51.625C35.1199 51.8341 34.7568 51.8201 34.5293 51.5926L32.6691 49.7324C32.4416 49.5049 32.4284 49.1417 32.6367 48.8976L34.2756 46.9857C33.7313 46.1151 33.3244 45.1517 33.0864 44.121L30.5787 43.9285C30.2593 43.904 30.0117 43.6363 30.0117 43.3151V40.684C30.0117 40.3629 30.2593 40.096 30.5787 40.0715L33.0864 39.879C33.3236 38.8483 33.7304 37.8849 34.2756 37.0143L32.6376 35.1024C32.4284 34.8591 32.4424 34.4951 32.6691 34.2685L34.5293 32.4083C34.7559 32.1816 35.1199 32.1676 35.3641 32.3759L37.2759 34.0148C38.1466 33.4705 39.1099 33.0636 40.1407 32.8256L40.3332 30.3179C40.3577 29.9976 40.6254 29.75 40.9466 29.75H43.5777C43.8988 29.75 44.1657 29.9976 44.1902 30.317L44.2016 30.4631C43.5226 31.5053 43.1367 32.7337 43.1367 34.0331C43.1367 35.0849 43.3852 36.0929 43.8393 36.9924C43.3414 36.8349 42.8112 36.75 42.2617 36.75C39.3619 36.75 37.0117 39.1003 37.0117 42C37.0117 44.8997 39.3619 47.25 42.2617 47.25C43.6083 47.25 44.8324 46.739 45.7617 45.9051V50.7369Z" fill="var(--fill-0, #8B1A4A)"/>
<path id="Vector_2" d="M51.8867 38.3154V52.0625C51.8867 53.2709 50.9076 54.25 49.6992 54.25C48.4908 54.25 47.5117 53.2709 47.5117 52.0625V38.3154C45.9542 37.5183 44.8867 35.9021 44.8867 34.0323C44.8867 32.2254 45.8842 30.6539 47.3577 29.8314C47.4251 29.7946 47.5117 29.8471 47.5117 29.9241V35L49.6992 35.875L51.8867 35V29.9241C51.8867 29.8471 51.9733 29.7946 52.0407 29.8323C53.5142 30.6548 54.5117 32.2254 54.5117 34.0331C54.5117 35.9021 53.4442 37.5191 51.8867 38.3154Z" fill="var(--fill-0, #8B1A4A)"/>
</g>
</g>
</svg>
