<svg width="28" height="28" viewBox="28 28 28 28" fill="none" xmlns="http://www.w3.org/2000/svg" preserveAspectRatio="xMidYMid meet">
  <path fill-rule="evenodd" clip-rule="evenodd" d="M31.0874 47.5923C31.1312 47.8887 30.9263 48.1638 30.6312 48.2073C30.3335 48.2507 30.0602 48.0455 30.0166 47.7491C29.9729 47.4532 30.1777 47.1775 30.4728 47.1341C30.7705 47.0912 31.0465 47.2961 31.0874 47.5923ZM45.8488 36.0238C47.3577 37.6982 48.4838 39.1522 49.2267 40.4567C50.6357 42.9305 50.287 45.4242 48.9056 47.2496L47.6739 47.967C47.3425 48.1599 47.0049 48.2823 46.6559 48.3421C46.8015 48.1486 46.9142 47.9171 46.9866 47.6486C47.2606 46.6331 46.6528 45.6289 45.6771 45.2908L45.6139 45.2689L45.5482 45.2569C45.3227 45.2156 45.0985 45.1689 44.8756 45.1177C45.0748 44.8514 45.1916 44.5233 45.1822 44.1282C45.1805 44.0602 45.1766 44.0004 45.1705 43.9493C45.0915 43.2986 44.7395 42.8751 44.2727 42.5933C43.8627 42.3457 43.371 42.2224 42.9202 42.1484C42.5951 42.095 42.2527 42.0047 42.0019 41.841C41.8076 41.7141 41.6682 41.5305 41.6551 41.2619C41.641 40.9713 41.7679 40.7369 41.9678 40.5744C42.1244 40.447 42.3241 40.3586 42.5407 40.315C42.6278 40.2975 42.7175 40.2874 42.808 40.285C42.8176 40.2856 42.8273 40.2859 42.837 40.2859C42.8487 40.2859 42.8603 40.2854 42.8718 40.2846C42.9915 40.2864 43.1121 40.3017 43.2299 40.3316C43.592 40.4234 43.9217 40.662 44.0953 41.0755C44.1993 41.3235 44.4847 41.4402 44.7327 41.3362C44.9806 41.2321 45.0974 40.9467 44.9934 40.6987C44.6877 39.9707 44.1056 39.55 43.4658 39.3878C43.4189 39.3759 43.3716 39.3655 43.3241 39.3565V38.979C43.3241 38.71 43.106 38.4919 42.837 38.4919C42.568 38.4919 42.3499 38.71 42.3499 38.979V39.3637C41.9809 39.4382 41.6343 39.5939 41.3551 39.8209C40.9261 40.1697 40.6541 40.6761 40.6848 41.3076C40.7156 41.942 41.0321 42.3676 41.4729 42.6553C41.8572 42.9062 42.3291 43.0359 42.7642 43.1074C43.1137 43.1647 43.4868 43.2555 43.7704 43.4266C43.9971 43.5635 44.1675 43.7636 44.2039 44.0634C44.2087 44.1034 44.2113 44.1324 44.2118 44.151C44.2174 44.3894 44.1034 44.571 43.9322 44.701C43.874 44.745 43.8096 44.7843 43.7404 44.8187C42.4823 44.4486 41.3134 43.9689 40.071 43.5658C38.7739 43.1449 37.5651 43.6212 36.4445 44.2704L35.6813 44.7126C35.4384 43.3811 35.6572 41.9156 36.4881 40.4568C37.231 39.1523 38.3571 37.6982 39.866 36.0239C40.0553 36.0855 40.2572 36.119 40.4667 36.119H45.2482C45.4576 36.119 45.6594 36.0854 45.8488 36.0238ZM40.4666 35.244H45.2481C45.8376 35.244 46.3199 34.7616 46.3199 34.1723C46.3199 33.5827 45.8377 33.1005 45.2481 33.1005H40.4666C39.8771 33.1005 39.3949 33.5827 39.3949 34.1722C39.3948 34.7617 39.8771 35.244 40.4666 35.244ZM40.4276 32.2259L39.5473 31.3456C39.119 30.9173 39.119 30.2164 39.5473 29.7881C39.9117 29.4237 40.4883 29.3622 40.9219 29.6404C41.0829 29.7438 41.2678 29.7602 41.4446 29.6871C41.6213 29.6139 41.7403 29.4715 41.7812 29.2846C41.8892 28.7901 42.3318 28.417 42.8575 28.4169C43.3736 28.4169 43.8237 28.7807 43.9338 29.2846C43.9746 29.4715 44.0937 29.6139 44.2704 29.6871C44.4471 29.7603 44.632 29.7438 44.793 29.6404C45.2188 29.3671 45.7958 29.4164 46.1675 29.788V29.7881C46.5958 30.2164 46.5958 30.9173 46.1675 31.3456L45.2872 32.2259C45.2743 32.2257 45.2612 32.2254 45.2482 32.2254H40.4667C40.4536 32.2254 40.4406 32.2257 40.4276 32.2259ZM32.8342 47.3732L35.753 52.5237L36.8512 51.8899C36.9578 51.8282 37.0835 51.8118 37.2037 51.8438L44.101 53.3628C45.0134 53.6068 45.8713 53.4863 46.6554 53.0044L55.0311 47.799C55.4873 47.5192 55.6266 46.6979 55.3125 46.1721C54.8562 45.4104 53.6487 45.5003 52.0806 46.413L48.1143 48.723C47.2893 49.205 46.3986 49.3609 45.396 49.2003C45.2129 49.1708 45.0326 49.1393 44.8551 49.1052C44.8168 49.1025 41.481 48.2354 41.0986 48.1323C40.85 48.0662 40.7024 47.8121 40.7707 47.5655C40.8363 47.318 41.0904 47.1715 41.3363 47.2376C41.7269 47.3423 44.0928 48.013 44.9807 48.1857C45.4343 48.2146 45.9615 48.0884 46.1419 47.4207C46.2894 46.8732 45.967 46.3173 45.3906 46.1175C43.7705 45.8209 42.205 45.2556 40.9483 44.8005C40.5085 44.6417 40.1287 44.5046 39.8009 44.3981C38.7681 44.0631 37.7874 44.5027 36.8831 45.0275L32.8342 47.3732ZM35.6472 54.2258L31.183 46.3377C31.1393 46.2607 31.0683 46.2054 30.9809 46.1811C30.9508 46.1732 30.9208 46.1691 30.8907 46.1691C30.8334 46.1691 30.7787 46.1836 30.7295 46.2115L29.2105 47.0707C29.0493 47.1617 28.9947 47.3657 29.0848 47.5256L33.5489 55.4136C33.6391 55.574 33.844 55.6303 34.0024 55.5399L35.5214 54.6805C35.598 54.637 35.6526 54.5652 35.6771 54.4791C35.7018 54.3927 35.6909 54.3029 35.6472 54.2258Z" fill="#C4272E"/>
</svg>
