<svg width="27" height="20" viewBox="0 0 26.6914 20.311" fill="none" xmlns="http://www.w3.org/2000/svg" preserveAspectRatio="xMidYMid meet">
<path d="M12.1676 12.1054H5.84921C2.61703 12.1054 0 14.7224 0 17.9546C0 19.2579 1.05307 20.3109 2.35637 20.3109H15.6605C16.9638 20.3109 18.0168 19.2579 18.0168 17.9546C18.0168 14.7224 15.3998 12.1054 12.1676 12.1054Z" fill="white"/>
<path d="M9.00834 10.4368C11.8904 10.4368 14.2267 8.10046 14.2267 5.21841C14.2267 2.33636 11.8904 0 9.00834 0C6.12628 0 3.78992 2.33636 3.78992 5.21841C3.78992 8.10046 6.12628 10.4368 9.00834 10.4368Z" fill="white"/>
<path d="M25.044 5.9383H22.9066V3.80088C22.9066 2.88857 22.1715 2.15351 21.2592 2.15351C20.3469 2.15351 19.6118 2.88857 19.6118 3.80088V5.9383H17.4744C16.5673 5.9383 15.827 6.67336 15.827 7.58567C15.827 8.49276 16.5621 9.23304 17.4744 9.23304H19.6118V11.3705C19.6118 12.2775 20.3469 13.0178 21.2592 13.0178C22.1663 13.0178 22.9066 12.2828 22.9066 11.3705V9.23304H25.044C25.9563 9.23304 26.6914 8.49798 26.6914 7.58567C26.6914 6.67857 25.9563 5.9383 25.044 5.9383Z" fill="white"/>
</svg>
