<svg width="318" height="187" viewBox="0 0 318 187" fill="none" xmlns="http://www.w3.org/2000/svg">
<path d="M130.527 183.308C100.8 176.3 67.3449 157.831 3.49999 42.5C-48.0758 -35.4101 -73.8637 -74.3652 -70.4175 -83.8378C-69.5617 -86.1902 -69.1882 -86.8854 -67.699 -88.8975C-61.7027 -97 -21.5901 -97 58.635 -97L264.304 -97C353.157 -97 397.583 -97 403.353 -91.5891C408.119 -87.1207 409.319 -84.5289 409.648 -78.0048C410.045 -70.1044 378.409 -32.7733 315.136 41.8891C307.642 49.9788 282.505 81.7708 241.365 144.681C240.448 146.082 239.99 146.783 239.446 147.474C238.902 148.164 238.411 148.687 237.427 149.732L237.427 149.733C200.795 188.675 164.82 191.392 130.527 183.308Z" fill="#6D6D6D" fill-opacity="0.2"/>
</svg>
