<svg preserveAspectRatio="none" width="100%" height="100%" overflow="visible" style="display: block;" viewBox="0 0 284 480.374" fill="none" xmlns="http://www.w3.org/2000/svg">
<path id="Vector 1670" d="M280.308 201.25C273.3 171.523 254.831 138.068 139.5 74.2229C61.5899 22.6471 22.6348 -3.14083 13.1622 0.305405C10.8098 1.16124 10.1146 1.53474 8.10247 3.02387C0 9.02023 0 49.1328 0 129.358V335.027C0 423.88 0 468.306 5.41088 474.076C9.87923 478.841 12.4711 480.042 18.9952 480.371C26.8956 480.768 64.2267 449.132 138.889 385.859C146.979 378.365 178.771 353.228 241.681 312.088C243.082 311.171 243.783 310.713 244.474 310.169C245.164 309.625 245.687 309.133 246.732 308.15L246.733 308.15C285.675 271.518 288.392 235.543 280.308 201.25Z" fill="var(--fill-0, #6D6D6D)" fill-opacity="0.2"/>
</svg>
