<svg preserveAspectRatio="none" width="100%" height="100%" overflow="visible" style="display: block;" viewBox="0 0 16 16" fill="none" xmlns="http://www.w3.org/2000/svg">
<g id="majesticons:eye-off-line">
<path id="Vector" d="M4.66634 4.24133C5.67454 3.64197 6.82678 3.3281 7.99967 3.33333C12.2043 3.33333 14.2443 7.122 14.6063 7.872C14.6463 7.954 14.6463 8.046 14.6063 8.12867C14.3717 8.614 13.4357 10.37 11.6663 11.5493M9.33301 12.5333C8.89417 12.6224 8.44747 12.6671 7.99967 12.6667C3.79501 12.6667 1.75501 8.878 1.39301 8.128C1.37345 8.08793 1.36328 8.04392 1.36328 7.99933C1.36328 7.95474 1.37345 7.91074 1.39301 7.87067C1.53901 7.56933 1.95301 6.78267 2.66634 5.94733M6.66634 6.50933C7.04737 6.16873 7.54433 5.98691 8.0552 6.00121C8.56606 6.01551 9.05208 6.22483 9.41346 6.58621C9.77484 6.9476 9.98416 7.43361 9.99846 7.94448C10.0128 8.45535 9.83094 8.95231 9.49034 9.33333M1.99967 2L13.9997 14" stroke="var(--stroke-0, #494949)" stroke-width="1.33333" stroke-linecap="round" stroke-linejoin="round"/>
</g>
</svg>
