<svg preserveAspectRatio="none" width="100%" height="100%" overflow="visible" style="display: block;" viewBox="0 0 34.3 34.9992" fill="none" xmlns="http://www.w3.org/2000/svg">
<g id="google">
<path id="Shape" fill-rule="evenodd" clip-rule="evenodd" d="M34.3 17.8977C34.3 16.6568 34.1887 15.4636 33.9818 14.3182H17.5V21.0875H26.9182C26.5125 23.275 25.2796 25.1284 23.4261 26.3693V30.7602H29.0818C32.3909 27.7137 34.3 23.2273 34.3 17.8977Z" fill="var(--fill-0, #4285F4)"/>
<path id="Shape_2" fill-rule="evenodd" clip-rule="evenodd" d="M17.5 34.9992C22.225 34.9992 26.1863 33.4322 29.0818 30.7595L23.4261 26.3685C21.8591 27.4185 19.8545 28.039 17.5 28.039C12.942 28.039 9.08406 24.9606 7.70792 20.8242H1.86133V25.3583C4.74088 31.0776 10.6591 34.9992 17.5 34.9992Z" fill="var(--fill-0, #34A853)"/>
<path id="Shape_3" fill-rule="evenodd" clip-rule="evenodd" d="M7.70796 20.8247C7.35796 19.7747 7.15909 18.6531 7.15909 17.4997C7.15909 16.3463 7.35796 15.2247 7.70796 14.1747V9.64062H1.86136C0.676137 12.0031 0 14.6759 0 17.4997C0 20.3236 0.676137 22.9963 1.86136 25.3588L7.70796 20.8247Z" fill="var(--fill-0, #FBBC05)"/>
<path id="Shape_4" fill-rule="evenodd" clip-rule="evenodd" d="M17.5 6.96023C20.0693 6.96023 22.3762 7.84319 24.1898 9.57728L29.2091 4.55796C26.1784 1.73409 22.2171 0 17.5 0C10.6591 0 4.74092 3.92159 1.86137 9.64091L7.70796 14.175C9.0841 10.0386 12.9421 6.96023 17.5 6.96023Z" fill="var(--fill-0, #EA4335)"/>
</g>
</svg>
