<svg preserveAspectRatio="none" width="100%" height="100%" overflow="visible" style="display: block;" viewBox="0 0 24.01 24.5006" fill="none" xmlns="http://www.w3.org/2000/svg">
<g id="google">
<path id="Shape" fill-rule="evenodd" clip-rule="evenodd" d="M24.01 12.5291C24.01 11.6605 23.9321 10.8253 23.7873 10.0234H12.25V14.762H18.8427C18.5588 16.2932 17.6957 17.5906 16.3983 18.4592V21.5329H20.3573C22.6736 19.4003 24.01 16.2598 24.01 12.5291Z" fill="var(--fill-0, #4285F4)"/>
<path id="Shape_2" fill-rule="evenodd" clip-rule="evenodd" d="M12.2498 24.5006C15.5573 24.5006 18.3302 23.4037 20.3571 21.5328L16.3981 18.4591C15.3012 19.1941 13.898 19.6285 12.2498 19.6285C9.05922 19.6285 6.35865 17.4736 5.39535 14.5781H1.30273V17.752C3.31842 21.7555 7.46115 24.5006 12.2498 24.5006Z" fill="var(--fill-0, #34A853)"/>
<path id="Shape_3" fill-rule="evenodd" clip-rule="evenodd" d="M5.39557 14.5769C5.15057 13.8419 5.01137 13.0568 5.01137 12.2494C5.01137 11.442 5.15057 10.6569 5.39557 9.92191V6.74805H1.30296C0.473296 8.4018 0 10.2727 0 12.2494C0 14.2261 0.473296 16.097 1.30296 17.7508L5.39557 14.5769Z" fill="var(--fill-0, #FBBC05)"/>
<path id="Shape_4" fill-rule="evenodd" clip-rule="evenodd" d="M12.25 4.87216C14.0485 4.87216 15.6633 5.49023 16.9329 6.70409L20.4464 3.19057C18.3249 1.21386 15.5519 0 12.25 0C7.46137 0 3.31864 2.74512 1.30296 6.74864L5.39557 9.9225C6.35887 7.02705 9.05944 4.87216 12.25 4.87216Z" fill="var(--fill-0, #EA4335)"/>
</g>
</svg>
