<svg preserveAspectRatio="none" width="100%" height="100%" overflow="visible" style="display: block;" viewBox="0 0 11.7 16.2" fill="none" xmlns="http://www.w3.org/2000/svg">
<g id="Group">
<path id="Vector" d="M7.34475 10.35H7.35M4.35 10.35H4.35525" stroke="var(--stroke-0, #494949)" stroke-width="1.7" stroke-linecap="round" stroke-linejoin="round"/>
<path id="Vector_2" d="M0.6 10.35C0.6 9.66056 0.735795 8.97787 0.999632 8.34091C1.26347 7.70395 1.65018 7.1252 2.13769 6.63769C2.6252 6.15018 3.20395 5.76347 3.84091 5.49963C4.47787 5.2358 5.16056 5.1 5.85 5.1C6.53944 5.1 7.22213 5.2358 7.85909 5.49963C8.49605 5.76347 9.0748 6.15018 9.56231 6.63769C10.0498 7.1252 10.4365 7.70395 10.7004 8.34091C10.9642 8.97787 11.1 9.66056 11.1 10.35C11.1 11.7424 10.5469 13.0777 9.56231 14.0623C8.57774 15.0469 7.24239 15.6 5.85 15.6C4.45761 15.6 3.12226 15.0469 2.13769 14.0623C1.15312 13.0777 0.6 11.7424 0.6 10.35Z" stroke="var(--stroke-0, #494949)" stroke-width="1.2"/>
<path id="Vector_3" d="M9.225 6.225V3.975C9.225 3.07989 8.86942 2.22145 8.23649 1.58851C7.60355 0.955579 6.74511 0.6 5.85 0.6C4.95489 0.6 4.09645 0.955579 3.46351 1.58851C2.83058 2.22145 2.475 3.07989 2.475 3.975V6.225" stroke="var(--stroke-0, #494949)" stroke-width="1.2" stroke-linecap="round"/>
</g>
</svg>
