<svg preserveAspectRatio="none" width="100%" height="100%" overflow="visible" style="display: block;" viewBox="0 0 14 14" fill="none" xmlns="http://www.w3.org/2000/svg">
<g id="star">
<path id="Subtract" d="M7.4082 1.00098C6.91807 1.00098 6.42824 1.23711 6.13477 1.70898L5.0498 3.45312C4.8433 3.78517 4.51536 4.02343 4.13574 4.11719L2.1416 4.60938C1.06278 4.87597 0.63852 6.18239 1.35449 7.03223L2.67871 8.60254C2.93077 8.90157 3.0555 9.28766 3.02734 9.67773L2.87988 11.7256C2.79986 12.8341 3.91084 13.642 4.94043 13.2236L6.84277 12.4502C7.02392 12.3765 7.21626 12.3398 7.4082 12.3398V1.00098Z" fill="var(--fill-0, #FFC53D)"/>
<path id="Subtract_2" opacity="0.5" d="M7.4082 1.00098C7.89834 1.00098 8.38817 1.23711 8.68164 1.70898L9.7666 3.45312C9.9731 3.78517 10.301 4.02343 10.6807 4.11719L12.6748 4.60938C13.7536 4.87597 14.1779 6.18239 13.4619 7.03223L12.1377 8.60254C11.8856 8.90157 11.7609 9.28766 11.7891 9.67773L11.9365 11.7256C12.0165 12.8341 10.9056 13.642 9.87598 13.2236L7.97363 12.4502C7.79249 12.3765 7.60015 12.3398 7.4082 12.3398V1.00098Z" fill="var(--fill-0, #FFC53D)"/>
</g>
</svg>
