<svg preserveAspectRatio="none" width="100%" height="100%" overflow="visible" style="display: block;" viewBox="0 0 12.8155 12.3349" fill="none" xmlns="http://www.w3.org/2000/svg">
<path id="Star" d="M5.13388 0.707979C5.72079 -0.235993 7.09467 -0.235993 7.68158 0.707979L8.76596 2.45205C8.97247 2.78418 9.30052 3.02252 9.6802 3.11628L11.674 3.60864C12.7531 3.87513 13.1777 5.18176 12.4613 6.03166L11.1377 7.60191C10.8856 7.90094 10.7603 8.28659 10.7885 8.67666L10.9363 10.725C11.0163 11.8337 9.90486 12.6412 8.87518 12.2225L6.97276 11.4489C6.61048 11.3016 6.20498 11.3016 5.8427 11.4489L3.94028 12.2225C2.9106 12.6412 1.79911 11.8337 1.87914 10.725L2.027 8.67666C2.05516 8.28659 1.92985 7.90094 1.67779 7.60191L0.354173 6.03166C-0.362231 5.18176 0.0623196 3.87513 1.14146 3.60864L3.13526 3.11628C3.51494 3.02252 3.843 2.78418 4.0495 2.45205L5.13388 0.707979Z" fill="var(--fill-0, #C9922A)"/>
</svg>
