<svg preserveAspectRatio="none" width="100%" height="100%" overflow="visible" style="display: block;" viewBox="0 0 16 16" fill="none" xmlns="http://www.w3.org/2000/svg">
<g id="solar:user-outline">
<path id="Vector" fill-rule="evenodd" clip-rule="evenodd" d="M7.99939 0.833984C7.15953 0.833984 6.35408 1.16761 5.76021 1.76148C5.16635 2.35534 4.83272 3.1608 4.83272 4.00065C4.83272 4.8405 5.16635 5.64596 5.76021 6.23982C6.35408 6.83369 7.15953 7.16732 7.99939 7.16732C8.83924 7.16732 9.64469 6.83369 10.2386 6.23982C10.8324 5.64596 11.1661 4.8405 11.1661 4.00065C11.1661 3.1608 10.8324 2.35534 10.2386 1.76148C9.64469 1.16761 8.83924 0.833984 7.99939 0.833984ZM5.83272 4.00065C5.83272 3.42602 6.06099 2.87492 6.46732 2.46859C6.87365 2.06226 7.42475 1.83398 7.99939 1.83398C8.57402 1.83398 9.12512 2.06226 9.53145 2.46859C9.93778 2.87492 10.1661 3.42602 10.1661 4.00065C10.1661 4.57529 9.93778 5.12639 9.53145 5.53272C9.12512 5.93904 8.57402 6.16732 7.99939 6.16732C7.42475 6.16732 6.87365 5.93904 6.46732 5.53272C6.06099 5.12639 5.83272 4.57529 5.83272 4.00065ZM7.99939 8.16732C6.45739 8.16732 5.03605 8.51798 3.98339 9.10998C2.94605 9.69398 2.16605 10.578 2.16605 11.6673V11.7353C2.16539 12.51 2.16472 13.482 3.01739 14.1767C3.43672 14.518 4.02405 14.7613 4.81739 14.9213C5.61205 15.0827 6.64872 15.1673 7.99939 15.1673C9.35005 15.1673 10.3861 15.0827 11.1821 14.9213C11.9754 14.7613 12.5621 14.518 12.9821 14.1767C13.8347 13.482 13.8334 12.51 13.8327 11.7353V11.6673C13.8327 10.578 13.0527 9.69398 12.0161 9.10998C10.9627 8.51798 9.54205 8.16732 7.99939 8.16732ZM3.16605 11.6673C3.16605 11.1 3.58072 10.484 4.47339 9.98198C5.35072 9.48865 6.59605 9.16732 8.00005 9.16732C9.40272 9.16732 10.6481 9.48865 11.5254 9.98198C12.4187 10.484 12.8327 11.1 12.8327 11.6673C12.8327 12.5393 12.8061 13.03 12.3501 13.4007C12.1034 13.602 11.6901 13.7987 10.9834 13.9413C10.2787 14.084 9.31539 14.1673 7.99939 14.1673C6.68339 14.1673 5.71939 14.084 5.01539 13.9413C4.30872 13.7987 3.89539 13.602 3.64872 13.4013C3.19272 13.03 3.16605 12.5393 3.16605 11.6673Z" fill="var(--fill-0, #494949)"/>
</g>
</svg>
