<svg width="22" height="12" viewBox="8 13 22 12" fill="none" xmlns="http://www.w3.org/2000/svg">
  <path
    d="M8.18055 22.8457C8.18055 23.1142 8.27788 23.3172 8.4725 23.4548C8.66713 23.5924 8.87518 23.641 9.09666 23.6008C9.3047 23.5605 9.45068 23.4867 9.53459 23.3793C9.61847 23.2719 9.66044 23.094 9.66044 22.8457V19.9263C9.66044 19.7182 9.5883 19.542 9.44399 19.3978C9.29972 19.2534 9.12354 19.1813 8.91548 19.1813C8.71413 19.1813 8.54132 19.2534 8.39702 19.3978C8.25272 19.542 8.18055 19.7182 8.18055 19.9263V22.8457ZM10.496 24.094C10.496 24.2887 10.5648 24.4346 10.7024 24.532C10.8399 24.6293 11.0161 24.678 11.2309 24.678C11.4524 24.678 11.6319 24.6293 11.7695 24.532C11.907 24.4347 11.9758 24.2887 11.9758 24.094V17.2887C11.9758 17.0874 11.9037 16.9145 11.7594 16.7702C11.6151 16.626 11.4389 16.5538 11.2309 16.5538C11.0295 16.5538 10.8567 16.626 10.7124 16.7702C10.5681 16.9146 10.496 17.0874 10.496 17.2887V24.094ZM12.8013 24.4162C12.8013 24.6108 12.8718 24.7568 13.0128 24.8541C13.1537 24.9514 13.3349 25.0001 13.5564 25.0001C13.7711 25.0001 13.9473 24.9514 14.0849 24.8541C14.2225 24.7568 14.2913 24.6108 14.2913 24.4162V18.2048C14.2913 17.9968 14.2191 17.8189 14.0748 17.6712C13.9305 17.5236 13.7577 17.4498 13.5564 17.4498C13.3483 17.4498 13.1705 17.5236 13.0228 17.6712C12.8752 17.8189 12.8014 17.9968 12.8014 18.2048V24.4162H12.8013ZM15.1168 24.4464C15.1168 24.8155 15.3651 25.0001 15.8617 25.0001C16.3584 25.0001 16.6067 24.8155 16.6067 24.4464V14.3793C16.6067 13.8156 16.4355 13.4968 16.0933 13.4229C15.8718 13.3692 15.6536 13.433 15.4389 13.6142C15.2241 13.7954 15.1167 14.0504 15.1167 14.3793V24.4464H15.1168ZM17.4725 24.7383V13.7854C17.4725 13.4364 17.5765 13.2283 17.7846 13.1612C18.2342 13.0538 18.6805 13.0001 19.1235 13.0001C20.1503 13.0001 21.1067 13.2417 21.9926 13.7249C22.8785 14.2082 23.5949 14.8676 24.1419 15.7031C24.6889 16.5387 25.006 17.4598 25.0933 18.4666C25.5026 18.2921 25.9389 18.2048 26.4019 18.2048C27.3415 18.2048 28.1452 18.537 28.813 19.2015C29.4808 19.8659 29.8147 20.6646 29.8147 21.5974C29.8147 22.537 29.4808 23.339 28.813 24.0035C28.1452 24.6679 27.3449 25.0001 26.412 25.0001L17.6537 24.9901C17.5932 24.9699 17.5479 24.933 17.5177 24.8793C17.4875 24.8256 17.4725 24.7786 17.4725 24.7383Z"
    fill="url(#soundcloudGrad)"
  />
  <defs>
    <linearGradient
      id="soundcloudGrad"
      x1="8"
      y1="13"
      x2="30"
      y2="25"
      gradientUnits="userSpaceOnUse"
    >
      <stop stop-color="#FF8800" />
      <stop offset="1" stop-color="#FF3300" />
    </linearGradient>
  </defs>
</svg>
